<?xml version="1.0" encoding="UTF-8" standalone="no"?>
<!-- Created with matplotlib (https://matplotlib.org/) -->

<svg
   xmlns:dc="http://purl.org/dc/elements/1.1/"
   xmlns:cc="http://creativecommons.org/ns#"
   xmlns:rdf="http://www.w3.org/1999/02/22-rdf-syntax-ns#"
   xmlns:svg="http://www.w3.org/2000/svg"
   xmlns="http://www.w3.org/2000/svg"
   xmlns:xlink="http://www.w3.org/1999/xlink"
   xmlns:sodipodi="http://sodipodi.sourceforge.net/DTD/sodipodi-0.dtd"
   xmlns:inkscape="http://www.inkscape.org/namespaces/inkscape"
   height="288pt"
   version="1.1"
   viewBox="0 0 432 288"
   width="432pt"
   id="svg2"
   inkscape:version="0.91 r13725"
   sodipodi:docname="example plot.svg"
   inkscape:export-filename="/Users/elmar/repos/LectureSeries/RL/Assignments/LatexAssignmentStudentTemplate/pics/example plot.png"
   inkscape:export-xdpi="90"
   inkscape:export-ydpi="90">
  <metadata
     id="metadata385">
    <rdf:RDF>
      <cc:Work
         rdf:about="">
        <dc:format>image/svg+xml</dc:format>
        <dc:type
           rdf:resource="http://purl.org/dc/dcmitype/StillImage" />
      </cc:Work>
    </rdf:RDF>
  </metadata>
  <sodipodi:namedview
     pagecolor="#ffffff"
     bordercolor="#666666"
     borderopacity="1"
     objecttolerance="10"
     gridtolerance="10"
     guidetolerance="10"
     inkscape:pageopacity="0"
     inkscape:pageshadow="2"
     inkscape:window-width="727"
     inkscape:window-height="480"
     id="namedview383"
     showgrid="false"
     inkscape:zoom="0.50740741"
     inkscape:cx="270"
     inkscape:cy="180"
     inkscape:window-x="0"
     inkscape:window-y="0"
     inkscape:window-maximized="0"
     inkscape:current-layer="svg2" />
  <defs
     id="defs4">
    <style
       type="text/css"
       id="style6">
*{stroke-linecap:butt;stroke-linejoin:round;}
  </style>
  </defs>
  <g
     id="figure_1">
    <g
       id="patch_1">
      <path
         d="M 0 288  L 432 288  L 432 0  L 0 0  z "
         style="fill:#ffffff;"
         id="path10" />
    </g>
    <g
       id="axes_1">
      <g
         id="patch_2">
        <path
           d="M 54 252  L 388.8 252  L 388.8 34.56  L 54 34.56  z "
           style="fill:#ffffff;"
           id="path14" />
      </g>
      <g
         id="PolyCollection_1">
        <defs
           id="defs17">
          <path
             d="M 69.828129 -58.686577  L 69.828129 -58.551802  L 70.438076 -60.815203  L 71.048023 -62.11124  L 71.65797 -63.011217  L 72.267918 -63.694176  L 72.877865 -64.239867  L 73.487812 -64.690829  L 74.097759 -65.072457  L 74.707706 -65.401129  L 75.317653 -65.688029  L 75.927601 -65.941134  L 76.537548 -66.166332  L 77.147495 -66.368098  L 77.757442 -66.549908  L 78.367389 -66.714517  L 78.977336 -66.864148  L 79.587284 -67.000619  L 80.197231 -67.125433  L 80.807178 -67.239854  L 81.417125 -67.344946  L 82.027072 -67.441622  L 82.637019 -67.530663  L 83.246967 -67.612751  L 83.856914 -67.688475  L 84.466861 -67.758357  L 85.076808 -67.822854  L 85.686755 -67.882373  L 86.296702 -67.937276  L 86.90665 -67.987888  L 87.516597 -68.034499  L 88.126544 -68.077371  L 88.736491 -68.116743  L 89.346438 -68.152829  L 89.956385 -68.185826  L 90.566333 -68.215913  L 91.17628 -68.243254  L 91.786227 -68.267999  L 92.396174 -68.290287  L 93.006121 -68.310245  L 93.616069 -68.327992  L 94.226016 -68.343637  L 94.835963 -68.357281  L 95.44591 -68.369018  L 96.055857 -68.378935  L 96.665804 -68.387116  L 97.275752 -68.393635  L 97.885699 -68.398565  L 98.495646 -68.401973  L 99.105593 -68.40392  L 99.71554 -68.404467  L 100.325487 -68.403669  L 100.935435 -68.401577  L 101.545382 -68.398242  L 102.155329 -68.393709  L 102.765276 -68.388023  L 103.375223 -68.381226  L 103.98517 -68.373355  L 104.595118 -68.36445  L 105.205065 -68.354545  L 105.815012 -68.343674  L 106.424959 -68.331868  L 107.034906 -68.319159  L 107.644853 -68.305575  L 108.254801 -68.291144  L 108.864748 -68.275891  L 109.474695 -68.259843  L 110.084642 -68.243022  L 110.694589 -68.225453  L 111.304536 -68.207156  L 111.914484 -68.188152  L 112.524431 -68.168463  L 113.134378 -68.148106  L 113.744325 -68.127101  L 114.354272 -68.105464  L 114.964219 -68.083213  L 115.574167 -68.060365  L 116.184114 -68.036934  L 116.794061 -68.012936  L 117.404008 -67.988386  L 118.013955 -67.963296  L 118.623902 -67.937681  L 119.23385 -67.911554  L 119.843797 -67.884926  L 120.453744 -67.85781  L 121.063691 -67.830218  L 121.673638 -67.80216  L 122.283585 -67.773648  L 122.893533 -67.744691  L 123.50348 -67.7153  L 124.113427 -67.685484  L 124.723374 -67.655254  L 125.333321 -67.624617  L 125.943268 -67.593583  L 126.553216 -67.56216  L 127.163163 -67.530356  L 127.77311 -67.49818  L 128.383057 -67.465639  L 128.993004 -67.432741  L 129.602951 -67.399492  L 130.212899 -67.3659  L 130.822846 -67.331972  L 131.432793 -67.297715  L 132.04274 -67.263134  L 132.652687 -67.228236  L 133.262634 -67.193027  L 133.872582 -67.157514  L 134.482529 -67.121701  L 135.092476 -67.085594  L 135.702423 -67.049199  L 136.31237 -67.012521  L 136.922317 -66.975565  L 137.532265 -66.938336  L 138.142212 -66.900839  L 138.752159 -66.863079  L 139.362106 -66.82506  L 139.972053 -66.786786  L 140.582 -66.748263  L 141.191948 -66.709494  L 141.801895 -66.670484  L 142.411842 -66.631236  L 143.021789 -66.591754  L 143.631736 -66.552043  L 144.241683 -66.512106  L 144.851631 -66.471947  L 145.461578 -66.431569  L 146.071525 -66.390976  L 146.681472 -66.350171  L 147.291419 -66.309157  L 147.901366 -66.267938  L 148.511314 -66.226518  L 149.121261 -66.184898  L 149.731208 -66.143082  L 150.341155 -66.101073  L 150.951102 -66.058874  L 151.561049 -66.016488  L 152.170997 -65.973918  L 152.780944 -65.931165  L 153.390891 -65.888234  L 154.000838 -65.845125  L 154.610785 -65.801843  L 155.220732 -65.758389  L 155.83068 -65.714766  L 156.440627 -65.670977  L 157.050574 -65.627023  L 157.660521 -65.582906  L 158.270468 -65.53863  L 158.880415 -65.494196  L 159.490363 -65.449606  L 160.10031 -65.404863  L 160.710257 -65.359969  L 161.320204 -65.314925  L 161.930151 -65.269733  L 162.540098 -65.224396  L 163.150046 -65.178915  L 163.759993 -65.133293  L 164.36994 -65.08753  L 164.979887 -65.04163  L 165.589834 -64.995593  L 166.199781 -64.949421  L 166.809729 -64.903116  L 167.419676 -64.85668  L 168.029623 -64.810114  L 168.63957 -64.76342  L 169.249517 -64.716599  L 169.859464 -64.669654  L 170.469412 -64.622585  L 171.079359 -64.575393  L 171.689306 -64.528082  L 172.299253 -64.480651  L 172.9092 -64.433102  L 173.519147 -64.385437  L 174.129095 -64.337657  L 174.739042 -64.289764  L 175.348989 -64.241758  L 175.958936 -64.193641  L 176.568883 -64.145414  L 177.17883 -64.097079  L 177.788778 -64.048636  L 178.398725 -64.000087  L 179.008672 -63.951433  L 179.618619 -63.902675  L 180.228566 -63.853815  L 180.838513 -63.804853  L 181.448461 -63.755791  L 182.058408 -63.70663  L 182.668355 -63.65737  L 183.278302 -63.608013  L 183.888249 -63.55856  L 184.498196 -63.509012  L 185.108144 -63.459369  L 185.718091 -63.409634  L 186.328038 -63.359806  L 186.937985 -63.309887  L 187.547932 -63.259878  L 188.157879 -63.209779  L 188.767827 -63.159592  L 189.377774 -63.109318  L 189.987721 -63.058957  L 190.597668 -63.00851  L 191.207615 -62.957978  L 191.817562 -62.907362  L 192.42751 -62.856663  L 193.037457 -62.805881  L 193.647404 -62.755018  L 194.257351 -62.704074  L 194.867298 -62.65305  L 195.477245 -62.601947  L 196.087193 -62.550765  L 196.69714 -62.499506  L 197.307087 -62.44817  L 197.917034 -62.396757  L 198.526981 -62.345269  L 199.136928 -62.293706  L 199.746876 -62.242069  L 200.356823 -62.190358  L 200.96677 -62.138575  L 201.576717 -62.086719  L 202.186664 -62.034793  L 202.796611 -61.982795  L 203.406559 -61.930728  L 204.016506 -61.87859  L 204.626453 -61.826384  L 205.2364 -61.77411  L 205.846347 -61.721768  L 206.456294 -61.66936  L 207.066242 -61.616884  L 207.676189 -61.564343  L 208.286136 -61.511737  L 208.896083 -61.459066  L 209.50603 -61.406331  L 210.115977 -61.353532  L 210.725925 -61.30067  L 211.335872 -61.247746  L 211.945819 -61.19476  L 212.555766 -61.141712  L 213.165713 -61.088604  L 213.77566 -61.035435  L 214.385608 -60.982206  L 214.995555 -60.928918  L 215.605502 -60.875571  L 216.215449 -60.822166  L 216.825396 -60.768703  L 217.435343 -60.715182  L 218.045291 -60.661605  L 218.655238 -60.607971  L 219.265185 -60.554281  L 219.875132 -60.500535  L 220.485079 -60.446734  L 221.095026 -60.392879  L 221.704974 -60.338969  L 222.314921 -60.285006  L 222.924868 -60.230989  L 223.534815 -60.176919  L 224.144762 -60.122797  L 224.754709 -60.068622  L 225.364657 -60.014396  L 225.974604 -59.960119  L 226.584551 -59.90579  L 227.194498 -59.851411  L 227.804445 -59.796982  L 228.414392 -59.742503  L 229.02434 -59.687975  L 229.634287 -59.633398  L 230.244234 -59.578772  L 230.854181 -59.524098  L 231.464128 -59.469377  L 232.074075 -59.414607  L 232.684023 -59.359791  L 233.29397 -59.304927  L 233.903917 -59.250017  L 234.513864 -59.195061  L 235.123811 -59.14006  L 235.733758 -59.085012  L 236.343706 -59.02992  L 236.953653 -58.974783  L 237.5636 -58.919601  L 238.173547 -58.864376  L 238.783494 -58.809106  L 239.393441 -58.753793  L 240.003389 -58.698437  L 240.613336 -58.643038  L 241.223283 -58.587596  L 241.83323 -58.532112  L 242.443177 -58.476586  L 243.053124 -58.421018  L 243.663072 -58.365409  L 244.273019 -58.309759  L 244.882966 -58.254068  L 245.492913 -58.198336  L 246.10286 -58.142564  L 246.712807 -58.086753  L 247.322755 -58.030901  L 247.932702 -57.97501  L 248.542649 -57.91908  L 249.152596 -57.863111  L 249.762543 -57.807103  L 250.37249 -57.751057  L 250.982438 -57.694973  L 251.592385 -57.638851  L 252.202332 -57.582691  L 252.812279 -57.526494  L 253.422226 -57.47026  L 254.032173 -57.413989  L 254.642121 -57.357682  L 255.252068 -57.301337  L 255.862015 -57.244957  L 256.471962 -57.188541  L 257.081909 -57.132089  L 257.691856 -57.075602  L 258.301804 -57.01908  L 258.911751 -56.962522  L 259.521698 -56.90593  L 260.131645 -56.849304  L 260.741592 -56.792643  L 261.351539 -56.735947  L 261.961487 -56.679218  L 262.571434 -56.622456  L 263.181381 -56.565659  L 263.791328 -56.50883  L 264.401275 -56.451968  L 265.011222 -56.395072  L 265.62117 -56.338144  L 266.231117 -56.281184  L 266.841064 -56.224191  L 267.451011 -56.167167  L 268.060958 -56.11011  L 268.670905 -56.053022  L 269.280853 -55.995902  L 269.8908 -55.938752  L 270.500747 -55.88157  L 271.110694 -55.824357  L 271.720641 -55.767114  L 272.330588 -55.70984  L 272.940536 -55.652535  L 273.550483 -55.595201  L 274.16043 -55.537836  L 274.770377 -55.480442  L 275.380324 -55.423019  L 275.990271 -55.365565  L 276.600219 -55.308083  L 277.210166 -55.250571  L 277.820113 -55.193031  L 278.43006 -55.135462  L 279.040007 -55.077864  L 279.649954 -55.020237  L 280.259902 -54.962583  L 280.869849 -54.9049  L 281.479796 -54.84719  L 282.089743 -54.789452  L 282.69969 -54.731686  L 283.309637 -54.673892  L 283.919585 -54.616072  L 284.529532 -54.558224  L 285.139479 -54.500349  L 285.749426 -54.442448  L 286.359373 -54.384519  L 286.96932 -54.326565  L 287.579268 -54.268583  L 288.189215 -54.210576  L 288.799162 -54.152543  L 289.409109 -54.094483  L 290.019056 -54.036398  L 290.629003 -53.978287  L 291.238951 -53.920151  L 291.848898 -53.861989  L 292.458845 -53.803802  L 293.068792 -53.745589  L 293.678739 -53.687352  L 294.288686 -53.62909  L 294.898634 -53.570804  L 295.508581 -53.512493  L 296.118528 -53.454157  L 296.728475 -53.395797  L 297.338422 -53.337413  L 297.948369 -53.279005  L 298.558317 -53.220573  L 299.168264 -53.162117  L 299.778211 -53.103637  L 300.388158 -53.045134  L 300.998105 -52.986608  L 301.608052 -52.928058  L 302.218 -52.869485  L 302.827947 -52.810889  L 303.437894 -52.75227  L 304.047841 -52.693629  L 304.657788 -52.634964  L 305.267735 -52.576277  L 305.877683 -52.517568  L 306.48763 -52.458836  L 307.097577 -52.400082  L 307.707524 -52.341306  L 308.317471 -52.282508  L 308.927418 -52.223688  L 309.537366 -52.164847  L 310.147313 -52.105983  L 310.75726 -52.047098  L 311.367207 -51.988192  L 311.977154 -51.929264  L 312.587101 -51.870315  L 313.197049 -51.811345  L 313.806996 -51.752354  L 314.416943 -51.693342  L 315.02689 -51.63431  L 315.636837 -51.575256  L 316.246784 -51.516182  L 316.856732 -51.457087  L 317.466679 -51.397973  L 318.076626 -51.338837  L 318.686573 -51.279682  L 319.29652 -51.220506  L 319.906467 -51.161311  L 320.516415 -51.102095  L 321.126362 -51.04286  L 321.736309 -50.983605  L 322.346256 -50.92433  L 322.956203 -50.865036  L 323.56615 -50.805722  L 324.176098 -50.746389  L 324.786045 -50.687037  L 325.395992 -50.627666  L 326.005939 -50.568276  L 326.615886 -50.508866  L 327.225833 -50.449438  L 327.835781 -50.389991  L 328.445728 -50.330525  L 329.055675 -50.271041  L 329.665622 -50.211538  L 330.275569 -50.152017  L 330.885516 -50.092477  L 331.495464 -50.032919  L 332.105411 -49.973343  L 332.715358 -49.913749  L 333.325305 -49.854136  L 333.935252 -49.794506  L 334.545199 -49.734858  L 335.155147 -49.675192  L 335.765094 -49.615509  L 336.375041 -49.555808  L 336.984988 -49.496089  L 337.594935 -49.436353  L 338.204882 -49.376599  L 338.81483 -49.316829  L 339.424777 -49.257041  L 340.034724 -49.197236  L 340.644671 -49.137413  L 341.254618 -49.077574  L 341.864565 -49.017718  L 342.474513 -48.957845  L 343.08446 -48.897956  L 343.694407 -48.838049  L 344.304354 -48.778126  L 344.914301 -48.718187  L 345.524248 -48.658231  L 346.134196 -48.598259  L 346.744143 -48.53827  L 347.35409 -48.478265  L 347.964037 -48.418244  L 348.573984 -48.358207  L 349.183931 -48.298154  L 349.793879 -48.238085  L 350.403826 -48.178  L 351.013773 -48.117899  L 351.62372 -48.057783  L 352.233667 -47.99765  L 352.843615 -47.937502  L 353.453562 -47.877339  L 354.063509 -47.81716  L 354.673456 -47.756966  L 355.283403 -47.696756  L 355.89335 -47.636531  L 356.503298 -47.576291  L 357.113245 -47.516036  L 357.723192 -47.455765  L 358.333139 -47.39548  L 358.943086 -47.335179  L 359.553033 -47.274864  L 360.162981 -47.214534  L 360.772928 -47.154189  L 361.382875 -47.093829  L 361.992822 -47.033455  L 362.602769 -46.973066  L 363.212716 -46.912662  L 363.822664 -46.852244  L 364.432611 -46.791812  L 365.042558 -46.731365  L 365.652505 -46.670904  L 366.262452 -46.610429  L 366.872399 -46.549939  L 367.482347 -46.489436  L 368.092294 -46.428918  L 368.702241 -46.368387  L 369.312188 -46.307841  L 369.922135 -46.247282  L 370.532082 -46.186708  L 371.14203 -46.126121  L 371.751977 -46.065521  L 372.361924 -46.004906  L 372.971871 -45.944278  L 373.581818 -45.883636  L 373.581818 -113.135966  L 373.581818 -113.135966  L 372.971871 -113.061833  L 372.361924 -112.987687  L 371.751977 -112.913527  L 371.14203 -112.839354  L 370.532082 -112.765167  L 369.922135 -112.690966  L 369.312188 -112.616751  L 368.702241 -112.542523  L 368.092294 -112.46828  L 367.482347 -112.394023  L 366.872399 -112.319753  L 366.262452 -112.245468  L 365.652505 -112.171169  L 365.042558 -112.096856  L 364.432611 -112.022528  L 363.822664 -111.948186  L 363.212716 -111.87383  L 362.602769 -111.799459  L 361.992822 -111.725074  L 361.382875 -111.650674  L 360.772928 -111.57626  L 360.162981 -111.501831  L 359.553033 -111.427387  L 358.943086 -111.352928  L 358.333139 -111.278454  L 357.723192 -111.203965  L 357.113245 -111.129461  L 356.503298 -111.054943  L 355.89335 -110.980409  L 355.283403 -110.905859  L 354.673456 -110.831295  L 354.063509 -110.756715  L 353.453562 -110.68212  L 352.843615 -110.607509  L 352.233667 -110.532883  L 351.62372 -110.458241  L 351.013773 -110.383583  L 350.403826 -110.30891  L 349.793879 -110.23422  L 349.183931 -110.159515  L 348.573984 -110.084794  L 347.964037 -110.010057  L 347.35409 -109.935304  L 346.744143 -109.860535  L 346.134196 -109.785749  L 345.524248 -109.710947  L 344.914301 -109.636129  L 344.304354 -109.561294  L 343.694407 -109.486443  L 343.08446 -109.411575  L 342.474513 -109.33669  L 341.864565 -109.261789  L 341.254618 -109.186871  L 340.644671 -109.111936  L 340.034724 -109.036984  L 339.424777 -108.962015  L 338.81483 -108.887028  L 338.204882 -108.812025  L 337.594935 -108.737004  L 336.984988 -108.661966  L 336.375041 -108.58691  L 335.765094 -108.511837  L 335.155147 -108.436747  L 334.545199 -108.361638  L 333.935252 -108.286512  L 333.325305 -108.211368  L 332.715358 -108.136206  L 332.105411 -108.061026  L 331.495464 -107.985828  L 330.885516 -107.910612  L 330.275569 -107.835377  L 329.665622 -107.760124  L 329.055675 -107.684853  L 328.445728 -107.609563  L 327.835781 -107.534255  L 327.225833 -107.458928  L 326.615886 -107.383582  L 326.005939 -107.308217  L 325.395992 -107.232833  L 324.786045 -107.15743  L 324.176098 -107.082008  L 323.56615 -107.006567  L 322.956203 -106.931106  L 322.346256 -106.855626  L 321.736309 -106.780127  L 321.126362 -106.704607  L 320.516415 -106.629069  L 319.906467 -106.55351  L 319.29652 -106.477931  L 318.686573 -106.402333  L 318.076626 -106.326714  L 317.466679 -106.251075  L 316.856732 -106.175416  L 316.246784 -106.099736  L 315.636837 -106.024036  L 315.02689 -105.948315  L 314.416943 -105.872574  L 313.806996 -105.796812  L 313.197049 -105.721028  L 312.587101 -105.645224  L 311.977154 -105.569399  L 311.367207 -105.493552  L 310.75726 -105.417685  L 310.147313 -105.341795  L 309.537366 -105.265884  L 308.927418 -105.189952  L 308.317471 -105.113998  L 307.707524 -105.038021  L 307.097577 -104.962023  L 306.48763 -104.886003  L 305.877683 -104.80996  L 305.267735 -104.733896  L 304.657788 -104.657808  L 304.047841 -104.581699  L 303.437894 -104.505566  L 302.827947 -104.429411  L 302.218 -104.353232  L 301.608052 -104.277031  L 300.998105 -104.200807  L 300.388158 -104.124559  L 299.778211 -104.048288  L 299.168264 -103.971993  L 298.558317 -103.895675  L 297.948369 -103.819332  L 297.338422 -103.742966  L 296.728475 -103.666576  L 296.118528 -103.590162  L 295.508581 -103.513723  L 294.898634 -103.43726  L 294.288686 -103.360773  L 293.678739 -103.284261  L 293.068792 -103.207724  L 292.458845 -103.131162  L 291.848898 -103.054574  L 291.238951 -102.977962  L 290.629003 -102.901324  L 290.019056 -102.824661  L 289.409109 -102.747972  L 288.799162 -102.671257  L 288.189215 -102.594517  L 287.579268 -102.51775  L 286.96932 -102.440957  L 286.359373 -102.364137  L 285.749426 -102.287291  L 285.139479 -102.210419  L 284.529532 -102.133519  L 283.919585 -102.056593  L 283.309637 -101.979639  L 282.69969 -101.902658  L 282.089743 -101.82565  L 281.479796 -101.748614  L 280.869849 -101.67155  L 280.259902 -101.594459  L 279.649954 -101.517339  L 279.040007 -101.440191  L 278.43006 -101.363015  L 277.820113 -101.28581  L 277.210166 -101.208576  L 276.600219 -101.131313  L 275.990271 -101.054022  L 275.380324 -100.976701  L 274.770377 -100.89935  L 274.16043 -100.82197  L 273.550483 -100.74456  L 272.940536 -100.667121  L 272.330588 -100.589651  L 271.720641 -100.51215  L 271.110694 -100.43462  L 270.500747 -100.357058  L 269.8908 -100.279466  L 269.280853 -100.201843  L 268.670905 -100.124188  L 268.060958 -100.046502  L 267.451011 -99.968784  L 266.841064 -99.891034  L 266.231117 -99.813253  L 265.62117 -99.735439  L 265.011222 -99.657593  L 264.401275 -99.579714  L 263.791328 -99.501802  L 263.181381 -99.423857  L 262.571434 -99.345879  L 261.961487 -99.267868  L 261.351539 -99.189823  L 260.741592 -99.111744  L 260.131645 -99.03363  L 259.521698 -98.955483  L 258.911751 -98.877301  L 258.301804 -98.799084  L 257.691856 -98.720832  L 257.081909 -98.642545  L 256.471962 -98.564223  L 255.862015 -98.485865  L 255.252068 -98.407471  L 254.642121 -98.329041  L 254.032173 -98.250574  L 253.422226 -98.172071  L 252.812279 -98.093531  L 252.202332 -98.014954  L 251.592385 -97.936339  L 250.982438 -97.857687  L 250.37249 -97.778997  L 249.762543 -97.700269  L 249.152596 -97.621502  L 248.542649 -97.542697  L 247.932702 -97.463853  L 247.322755 -97.38497  L 246.712807 -97.306047  L 246.10286 -97.227085  L 245.492913 -97.148082  L 244.882966 -97.06904  L 244.273019 -96.989956  L 243.663072 -96.910832  L 243.053124 -96.831667  L 242.443177 -96.752461  L 241.83323 -96.673213  L 241.223283 -96.593922  L 240.613336 -96.51459  L 240.003389 -96.435215  L 239.393441 -96.355797  L 238.783494 -96.276336  L 238.173547 -96.196831  L 237.5636 -96.117283  L 236.953653 -96.03769  L 236.343706 -95.958053  L 235.733758 -95.878371  L 235.123811 -95.798644  L 234.513864 -95.718872  L 233.903917 -95.639053  L 233.29397 -95.559189  L 232.684023 -95.479278  L 232.074075 -95.399321  L 231.464128 -95.319316  L 230.854181 -95.239263  L 230.244234 -95.159163  L 229.634287 -95.079015  L 229.02434 -94.998818  L 228.414392 -94.918572  L 227.804445 -94.838276  L 227.194498 -94.757931  L 226.584551 -94.677536  L 225.974604 -94.59709  L 225.364657 -94.516593  L 224.754709 -94.436045  L 224.144762 -94.355445  L 223.534815 -94.274793  L 222.924868 -94.194089  L 222.314921 -94.113332  L 221.704974 -94.032521  L 221.095026 -93.951656  L 220.485079 -93.870738  L 219.875132 -93.789764  L 219.265185 -93.708736  L 218.655238 -93.627651  L 218.045291 -93.546511  L 217.435343 -93.465315  L 216.825396 -93.384061  L 216.215449 -93.30275  L 215.605502 -93.221381  L 214.995555 -93.139954  L 214.385608 -93.058468  L 213.77566 -92.976922  L 213.165713 -92.895317  L 212.555766 -92.813651  L 211.945819 -92.731924  L 211.335872 -92.650136  L 210.725925 -92.568286  L 210.115977 -92.486374  L 209.50603 -92.404398  L 208.896083 -92.322359  L 208.286136 -92.240256  L 207.676189 -92.158088  L 207.066242 -92.075855  L 206.456294 -91.993556  L 205.846347 -91.911191  L 205.2364 -91.828759  L 204.626453 -91.746258  L 204.016506 -91.66369  L 203.406559 -91.581053  L 202.796611 -91.498347  L 202.186664 -91.41557  L 201.576717 -91.332722  L 200.96677 -91.249804  L 200.356823 -91.166813  L 199.746876 -91.083749  L 199.136928 -91.000612  L 198.526981 -90.917401  L 197.917034 -90.834115  L 197.307087 -90.750753  L 196.69714 -90.667315  L 196.087193 -90.583801  L 195.477245 -90.500208  L 194.867298 -90.416537  L 194.257351 -90.332787  L 193.647404 -90.248957  L 193.037457 -90.165046  L 192.42751 -90.081053  L 191.817562 -89.996978  L 191.207615 -89.91282  L 190.597668 -89.828577  L 189.987721 -89.74425  L 189.377774 -89.659837  L 188.767827 -89.575337  L 188.157879 -89.49075  L 187.547932 -89.406074  L 186.937985 -89.321309  L 186.328038 -89.236454  L 185.718091 -89.151507  L 185.108144 -89.066469  L 184.498196 -88.981337  L 183.888249 -88.896111  L 183.278302 -88.81079  L 182.668355 -88.725373  L 182.058408 -88.639858  L 181.448461 -88.554245  L 180.838513 -88.468533  L 180.228566 -88.382721  L 179.618619 -88.296807  L 179.008672 -88.21079  L 178.398725 -88.12467  L 177.788778 -88.038445  L 177.17883 -87.952113  L 176.568883 -87.865674  L 175.958936 -87.779127  L 175.348989 -87.69247  L 174.739042 -87.605702  L 174.129095 -87.518821  L 173.519147 -87.431827  L 172.9092 -87.344718  L 172.299253 -87.257492  L 171.689306 -87.170149  L 171.079359 -87.082686  L 170.469412 -86.995103  L 169.859464 -86.907398  L 169.249517 -86.819569  L 168.63957 -86.731616  L 168.029623 -86.643536  L 167.419676 -86.555327  L 166.809729 -86.466989  L 166.199781 -86.37852  L 165.589834 -86.289917  L 164.979887 -86.20118  L 164.36994 -86.112307  L 163.759993 -86.023295  L 163.150046 -85.934143  L 162.540098 -85.84485  L 161.930151 -85.755413  L 161.320204 -85.66583  L 160.710257 -85.5761  L 160.10031 -85.48622  L 159.490363 -85.396189  L 158.880415 -85.306005  L 158.270468 -85.215664  L 157.660521 -85.125166  L 157.050574 -85.034509  L 156.440627 -84.943688  L 155.83068 -84.852704  L 155.220732 -84.761553  L 154.610785 -84.670232  L 154.000838 -84.57874  L 153.390891 -84.487074  L 152.780944 -84.395232  L 152.170997 -84.30321  L 151.561049 -84.211006  L 150.951102 -84.118618  L 150.341155 -84.026043  L 149.731208 -83.933277  L 149.121261 -83.840319  L 148.511314 -83.747165  L 147.901366 -83.653811  L 147.291419 -83.560256  L 146.681472 -83.466495  L 146.071525 -83.372526  L 145.461578 -83.278345  L 144.851631 -83.183949  L 144.241683 -83.089334  L 143.631736 -82.994496  L 143.021789 -82.899433  L 142.411842 -82.804141  L 141.801895 -82.708614  L 141.191948 -82.61285  L 140.582 -82.516845  L 139.972053 -82.420594  L 139.362106 -82.324093  L 138.752159 -82.227338  L 138.142212 -82.130324  L 137.532265 -82.033047  L 136.922317 -81.935502  L 136.31237 -81.837684  L 135.702423 -81.739587  L 135.092476 -81.641208  L 134.482529 -81.542541  L 133.872582 -81.44358  L 133.262634 -81.344319  L 132.652687 -81.244754  L 132.04274 -81.144877  L 131.432793 -81.044684  L 130.822846 -80.944167  L 130.212899 -80.843321  L 129.602951 -80.742138  L 128.993004 -80.640613  L 128.383057 -80.538737  L 127.77311 -80.436504  L 127.163163 -80.333906  L 126.553216 -80.230935  L 125.943268 -80.127584  L 125.333321 -80.023844  L 124.723374 -79.919706  L 124.113427 -79.815163  L 123.50348 -79.710204  L 122.893533 -79.604821  L 122.283585 -79.499004  L 121.673638 -79.392742  L 121.063691 -79.286026  L 120.453744 -79.178844  L 119.843797 -79.071185  L 119.23385 -78.963039  L 118.623902 -78.854392  L 118.013955 -78.745233  L 117.404008 -78.635548  L 116.794061 -78.525324  L 116.184114 -78.414548  L 115.574167 -78.303205  L 114.964219 -78.191279  L 114.354272 -78.078755  L 113.744325 -77.965618  L 113.134378 -77.851849  L 112.524431 -77.737431  L 111.914484 -77.622347  L 111.304536 -77.506576  L 110.694589 -77.390099  L 110.084642 -77.272894  L 109.474695 -77.15494  L 108.864748 -77.036215  L 108.254801 -76.916693  L 107.644853 -76.79635  L 107.034906 -76.67516  L 106.424959 -76.553095  L 105.815012 -76.430126  L 105.205065 -76.306223  L 104.595118 -76.181354  L 103.98517 -76.055485  L 103.375223 -75.928581  L 102.765276 -75.800605  L 102.155329 -75.671517  L 101.545382 -75.541275  L 100.935435 -75.409836  L 100.325487 -75.277153  L 99.71554 -75.143178  L 99.105593 -75.007857  L 98.495646 -74.871135  L 97.885699 -74.732953  L 97.275752 -74.593249  L 96.665804 -74.451955  L 96.055857 -74.309  L 95.44591 -74.164308  L 94.835963 -74.017797  L 94.226016 -73.869379  L 93.616069 -73.71896  L 93.006121 -73.566439  L 92.396174 -73.411707  L 91.786227 -73.254644  L 91.17628 -73.095125  L 90.566333 -72.93301  L 89.956385 -72.768149  L 89.346438 -72.600378  L 88.736491 -72.429517  L 88.126544 -72.255372  L 87.516597 -72.077725  L 86.90665 -71.89634  L 86.296702 -71.710954  L 85.686755 -71.521277  L 85.076808 -71.326983  L 84.466861 -71.127712  L 83.856914 -70.923056  L 83.246967 -70.712557  L 82.637019 -70.495696  L 82.027072 -70.27188  L 81.417125 -70.04043  L 80.807178 -69.800563  L 80.197231 -69.551369  L 79.587284 -69.29178  L 78.977336 -69.020536  L 78.367389 -68.73613  L 77.757442 -68.436747  L 77.147495 -68.120163  L 76.537548 -67.783623  L 75.927601 -67.42365  L 75.317653 -67.035771  L 74.707706 -66.614097  L 74.097759 -66.150651  L 73.487812 -65.634249  L 72.877865 -65.048512  L 72.267918 -64.368047  L 71.65797 -63.550314  L 71.048023 -62.515563  L 70.438076 -61.084752  L 69.828129 -58.686577  z "
             id="mb80bc6e786"
             style="stroke:#0000ff;stroke-opacity:0.1;" />
        </defs>
        <g
           clip-path="url(#p67818ec045)"
           id="g20">
          <use
             style="fill:#0000ff;fill-opacity:0.1;stroke:#0000ff;stroke-opacity:0.1;"
             x="0"
             xlink:href="#mb80bc6e786"
             y="288"
             id="use22" />
        </g>
      </g>
      <g
         id="PolyCollection_2">
        <defs
           id="defs25">
          <path
             d="M 69.218182 -58.612458  L 69.218182 -58.612458  L 69.828129 -58.9157  L 70.438076 -59.218941  L 71.048023 -59.522183  L 71.65797 -59.825425  L 72.267918 -60.128667  L 72.877865 -60.431909  L 73.487812 -60.735151  L 74.097759 -61.038393  L 74.707706 -61.341635  L 75.317653 -61.644877  L 75.927601 -61.948119  L 76.537548 -62.251361  L 77.147495 -62.554603  L 77.757442 -62.857845  L 78.367389 -63.161087  L 78.977336 -63.464329  L 79.587284 -63.767571  L 80.197231 -64.070813  L 80.807178 -64.374055  L 81.417125 -64.677297  L 82.027072 -64.980539  L 82.637019 -65.283781  L 83.246967 -65.587023  L 83.856914 -65.890265  L 84.466861 -66.193507  L 85.076808 -66.496749  L 85.686755 -66.799991  L 86.296702 -67.103233  L 86.90665 -67.406475  L 87.516597 -67.709717  L 88.126544 -68.012959  L 88.736491 -68.3162  L 89.346438 -68.619442  L 89.956385 -68.922684  L 90.566333 -69.225926  L 91.17628 -69.529168  L 91.786227 -69.83241  L 92.396174 -70.135652  L 93.006121 -70.438894  L 93.616069 -70.742136  L 94.226016 -71.045378  L 94.835963 -71.34862  L 95.44591 -71.651862  L 96.055857 -71.955104  L 96.665804 -72.258346  L 97.275752 -72.561588  L 97.885699 -72.86483  L 98.495646 -73.168072  L 99.105593 -73.471314  L 99.71554 -73.774556  L 100.325487 -74.077798  L 100.935435 -74.38104  L 101.545382 -74.684282  L 102.155329 -74.987524  L 102.765276 -75.290766  L 103.375223 -75.594008  L 103.98517 -75.89725  L 104.595118 -76.200492  L 105.205065 -76.503734  L 105.815012 -76.806976  L 106.424959 -77.110217  L 107.034906 -77.413459  L 107.644853 -77.716701  L 108.254801 -78.019943  L 108.864748 -78.323185  L 109.474695 -78.626427  L 110.084642 -78.929669  L 110.694589 -79.232911  L 111.304536 -79.536153  L 111.914484 -79.839395  L 112.524431 -80.142637  L 113.134378 -80.445879  L 113.744325 -80.749121  L 114.354272 -81.052363  L 114.964219 -81.355605  L 115.574167 -81.658847  L 116.184114 -81.962089  L 116.794061 -82.265331  L 117.404008 -82.568573  L 118.013955 -82.871815  L 118.623902 -83.175057  L 119.23385 -83.478299  L 119.843797 -83.781541  L 120.453744 -84.084783  L 121.063691 -84.388025  L 121.673638 -84.691267  L 122.283585 -84.994509  L 122.893533 -85.297751  L 123.50348 -85.600993  L 124.113427 -85.904235  L 124.723374 -86.207476  L 125.333321 -86.510718  L 125.943268 -86.81396  L 126.553216 -87.117202  L 127.163163 -87.420444  L 127.77311 -87.723686  L 128.383057 -88.026928  L 128.993004 -88.33017  L 129.602951 -88.633412  L 130.212899 -88.936654  L 130.822846 -89.239896  L 131.432793 -89.543138  L 132.04274 -89.84638  L 132.652687 -90.149622  L 133.262634 -90.452864  L 133.872582 -90.756106  L 134.482529 -91.059348  L 135.092476 -91.36259  L 135.702423 -91.665832  L 136.31237 -91.969074  L 136.922317 -92.272316  L 137.532265 -92.575558  L 138.142212 -92.8788  L 138.752159 -93.182042  L 139.362106 -93.485284  L 139.972053 -93.788526  L 140.582 -94.091768  L 141.191948 -94.39501  L 141.801895 -94.698252  L 142.411842 -95.001494  L 143.021789 -95.304735  L 143.631736 -95.607977  L 144.241683 -95.911219  L 144.851631 -96.214461  L 145.461578 -96.517703  L 146.071525 -96.820945  L 146.681472 -97.124187  L 147.291419 -97.427429  L 147.901366 -97.730671  L 148.511314 -98.033913  L 149.121261 -98.337155  L 149.731208 -98.640397  L 150.341155 -98.943639  L 150.951102 -99.246881  L 151.561049 -99.550123  L 152.170997 -99.853365  L 152.780944 -100.156607  L 153.390891 -100.459849  L 154.000838 -100.763091  L 154.610785 -101.066333  L 155.220732 -101.369575  L 155.83068 -101.672817  L 156.440627 -101.976059  L 157.050574 -102.279301  L 157.660521 -102.582543  L 158.270468 -102.885785  L 158.880415 -103.189027  L 159.490363 -103.492269  L 160.10031 -103.795511  L 160.710257 -104.098753  L 161.320204 -104.401994  L 161.930151 -104.705236  L 162.540098 -105.008478  L 163.150046 -105.31172  L 163.759993 -105.614962  L 164.36994 -105.918204  L 164.979887 -106.221446  L 165.589834 -106.524688  L 166.199781 -106.82793  L 166.809729 -107.131172  L 167.419676 -107.434414  L 168.029623 -107.737656  L 168.63957 -108.040898  L 169.249517 -108.34414  L 169.859464 -108.647382  L 170.469412 -108.950624  L 171.079359 -109.253866  L 171.689306 -109.557108  L 172.299253 -109.86035  L 172.9092 -110.163592  L 173.519147 -110.466834  L 174.129095 -110.770076  L 174.739042 -111.073318  L 175.348989 -111.37656  L 175.958936 -111.679802  L 176.568883 -111.983044  L 177.17883 -112.286286  L 177.788778 -112.589528  L 178.398725 -112.89277  L 179.008672 -113.196012  L 179.618619 -113.499253  L 180.228566 -113.802495  L 180.838513 -114.105737  L 181.448461 -114.408979  L 182.058408 -114.712221  L 182.668355 -115.015463  L 183.278302 -115.318705  L 183.888249 -115.621947  L 184.498196 -115.925189  L 185.108144 -116.228431  L 185.718091 -116.531673  L 186.328038 -116.834915  L 186.937985 -117.138157  L 187.547932 -117.441399  L 188.157879 -117.744641  L 188.767827 -118.047883  L 189.377774 -118.351125  L 189.987721 -118.654367  L 190.597668 -118.957609  L 191.207615 -119.260851  L 191.817562 -119.564093  L 192.42751 -119.867335  L 193.037457 -120.170577  L 193.647404 -120.473819  L 194.257351 -120.777061  L 194.867298 -121.080303  L 195.477245 -121.383545  L 196.087193 -121.686787  L 196.69714 -121.990029  L 197.307087 -122.293271  L 197.917034 -122.596512  L 198.526981 -122.899754  L 199.136928 -123.202996  L 199.746876 -123.506238  L 200.356823 -123.80948  L 200.96677 -124.112722  L 201.576717 -124.415964  L 202.186664 -124.719206  L 202.796611 -125.022448  L 203.406559 -125.32569  L 204.016506 -125.628932  L 204.626453 -125.932174  L 205.2364 -126.235416  L 205.846347 -126.538658  L 206.456294 -126.8419  L 207.066242 -127.145142  L 207.676189 -127.448384  L 208.286136 -127.751626  L 208.896083 -128.054868  L 209.50603 -128.35811  L 210.115977 -128.661352  L 210.725925 -128.964594  L 211.335872 -129.267836  L 211.945819 -129.571078  L 212.555766 -129.87432  L 213.165713 -130.177562  L 213.77566 -130.480804  L 214.385608 -130.784046  L 214.995555 -131.087288  L 215.605502 -131.39053  L 216.215449 -131.693771  L 216.825396 -131.997013  L 217.435343 -132.300255  L 218.045291 -132.603497  L 218.655238 -132.906739  L 219.265185 -133.209981  L 219.875132 -133.513223  L 220.485079 -133.816465  L 221.095026 -134.119707  L 221.704974 -134.422949  L 222.314921 -134.726191  L 222.924868 -135.029433  L 223.534815 -135.332675  L 224.144762 -135.635917  L 224.754709 -135.939159  L 225.364657 -136.242401  L 225.974604 -136.545643  L 226.584551 -136.848885  L 227.194498 -137.152127  L 227.804445 -137.455369  L 228.414392 -137.758611  L 229.02434 -138.061853  L 229.634287 -138.365095  L 230.244234 -138.668337  L 230.854181 -138.971579  L 231.464128 -139.274821  L 232.074075 -139.578063  L 232.684023 -139.881305  L 233.29397 -140.184547  L 233.903917 -140.487789  L 234.513864 -140.79103  L 235.123811 -141.094272  L 235.733758 -141.397514  L 236.343706 -141.700756  L 236.953653 -142.003998  L 237.5636 -142.30724  L 238.173547 -142.610482  L 238.783494 -142.913724  L 239.393441 -143.216966  L 240.003389 -143.520208  L 240.613336 -143.82345  L 241.223283 -144.126692  L 241.83323 -144.429934  L 242.443177 -144.733176  L 243.053124 -145.036418  L 243.663072 -145.33966  L 244.273019 -145.642902  L 244.882966 -145.946144  L 245.492913 -146.249386  L 246.10286 -146.552628  L 246.712807 -146.85587  L 247.322755 -147.159112  L 247.932702 -147.462354  L 248.542649 -147.765596  L 249.152596 -148.068838  L 249.762543 -148.37208  L 250.37249 -148.675322  L 250.982438 -148.978564  L 251.592385 -149.281806  L 252.202332 -149.585048  L 252.812279 -149.888289  L 253.422226 -150.191531  L 254.032173 -150.494773  L 254.642121 -150.798015  L 255.252068 -151.101257  L 255.862015 -151.404499  L 256.471962 -151.707741  L 257.081909 -152.010983  L 257.691856 -152.314225  L 258.301804 -152.617467  L 258.911751 -152.920709  L 259.521698 -153.223951  L 260.131645 -153.527193  L 260.741592 -153.830435  L 261.351539 -154.133677  L 261.961487 -154.436919  L 262.571434 -154.740161  L 263.181381 -155.043403  L 263.791328 -155.346645  L 264.401275 -155.649887  L 265.011222 -155.953129  L 265.62117 -156.256371  L 266.231117 -156.559613  L 266.841064 -156.862855  L 267.451011 -157.166097  L 268.060958 -157.469339  L 268.670905 -157.772581  L 269.280853 -158.075823  L 269.8908 -158.379065  L 270.500747 -158.682307  L 271.110694 -158.985548  L 271.720641 -159.28879  L 272.330588 -159.592032  L 272.940536 -159.895274  L 273.550483 -160.198516  L 274.16043 -160.501758  L 274.770377 -160.805  L 275.380324 -161.108242  L 275.990271 -161.411484  L 276.600219 -161.714726  L 277.210166 -162.017968  L 277.820113 -162.32121  L 278.43006 -162.624452  L 279.040007 -162.927694  L 279.649954 -163.230936  L 280.259902 -163.534178  L 280.869849 -163.83742  L 281.479796 -164.140662  L 282.089743 -164.443904  L 282.69969 -164.747146  L 283.309637 -165.050388  L 283.919585 -165.35363  L 284.529532 -165.656872  L 285.139479 -165.960114  L 285.749426 -166.263356  L 286.359373 -166.566598  L 286.96932 -166.86984  L 287.579268 -167.173082  L 288.189215 -167.476324  L 288.799162 -167.779566  L 289.409109 -168.082807  L 290.019056 -168.386049  L 290.629003 -168.689291  L 291.238951 -168.992533  L 291.848898 -169.295775  L 292.458845 -169.599017  L 293.068792 -169.902259  L 293.678739 -170.205501  L 294.288686 -170.508743  L 294.898634 -170.811985  L 295.508581 -171.115227  L 296.118528 -171.418469  L 296.728475 -171.721711  L 297.338422 -172.024953  L 297.948369 -172.328195  L 298.558317 -172.631437  L 299.168264 -172.934679  L 299.778211 -173.237921  L 300.388158 -173.541163  L 300.998105 -173.844405  L 301.608052 -174.147647  L 302.218 -174.450889  L 302.827947 -174.754131  L 303.437894 -175.057373  L 304.047841 -175.360615  L 304.657788 -175.663857  L 305.267735 -175.967099  L 305.877683 -176.270341  L 306.48763 -176.573583  L 307.097577 -176.876825  L 307.707524 -177.180066  L 308.317471 -177.483308  L 308.927418 -177.78655  L 309.537366 -178.089792  L 310.147313 -178.393034  L 310.75726 -178.696276  L 311.367207 -178.999518  L 311.977154 -179.30276  L 312.587101 -179.606002  L 313.197049 -179.909244  L 313.806996 -180.212486  L 314.416943 -180.515728  L 315.02689 -180.81897  L 315.636837 -181.122212  L 316.246784 -181.425454  L 316.856732 -181.728696  L 317.466679 -182.031938  L 318.076626 -182.33518  L 318.686573 -182.638422  L 319.29652 -182.941664  L 319.906467 -183.244906  L 320.516415 -183.548148  L 321.126362 -183.85139  L 321.736309 -184.154632  L 322.346256 -184.457874  L 322.956203 -184.761116  L 323.56615 -185.064358  L 324.176098 -185.3676  L 324.786045 -185.670842  L 325.395992 -185.974084  L 326.005939 -186.277325  L 326.615886 -186.580567  L 327.225833 -186.883809  L 327.835781 -187.187051  L 328.445728 -187.490293  L 329.055675 -187.793535  L 329.665622 -188.096777  L 330.275569 -188.400019  L 330.885516 -188.703261  L 331.495464 -189.006503  L 332.105411 -189.309745  L 332.715358 -189.612987  L 333.325305 -189.916229  L 333.935252 -190.219471  L 334.545199 -190.522713  L 335.155147 -190.825955  L 335.765094 -191.129197  L 336.375041 -191.432439  L 336.984988 -191.735681  L 337.594935 -192.038923  L 338.204882 -192.342165  L 338.81483 -192.645407  L 339.424777 -192.948649  L 340.034724 -193.251891  L 340.644671 -193.555133  L 341.254618 -193.858375  L 341.864565 -194.161617  L 342.474513 -194.464859  L 343.08446 -194.768101  L 343.694407 -195.071343  L 344.304354 -195.374584  L 344.914301 -195.677826  L 345.524248 -195.981068  L 346.134196 -196.28431  L 346.744143 -196.587552  L 347.35409 -196.890794  L 347.964037 -197.194036  L 348.573984 -197.497278  L 349.183931 -197.80052  L 349.793879 -198.103762  L 350.403826 -198.407004  L 351.013773 -198.710246  L 351.62372 -199.013488  L 352.233667 -199.31673  L 352.843615 -199.619972  L 353.453562 -199.923214  L 354.063509 -200.226456  L 354.673456 -200.529698  L 355.283403 -200.83294  L 355.89335 -201.136182  L 356.503298 -201.439424  L 357.113245 -201.742666  L 357.723192 -202.045908  L 358.333139 -202.34915  L 358.943086 -202.652392  L 359.553033 -202.955634  L 360.162981 -203.258876  L 360.772928 -203.562118  L 361.382875 -203.86536  L 361.992822 -204.168602  L 362.602769 -204.471843  L 363.212716 -204.775085  L 363.822664 -205.078327  L 364.432611 -205.381569  L 365.042558 -205.684811  L 365.652505 -205.988053  L 366.262452 -206.291295  L 366.872399 -206.594537  L 367.482347 -206.897779  L 368.092294 -207.201021  L 368.702241 -207.504263  L 369.312188 -207.807505  L 369.922135 -208.110747  L 370.532082 -208.413989  L 371.14203 -208.717231  L 371.751977 -209.020473  L 372.361924 -209.323715  L 372.971871 -209.626957  L 373.581818 -209.930199  L 373.581818 -243.556364  L 373.581818 -243.556364  L 372.971871 -243.185735  L 372.361924 -242.815105  L 371.751977 -242.444476  L 371.14203 -242.073847  L 370.532082 -241.703218  L 369.922135 -241.332589  L 369.312188 -240.96196  L 368.702241 -240.591331  L 368.092294 -240.220702  L 367.482347 -239.850073  L 366.872399 -239.479444  L 366.262452 -239.108815  L 365.652505 -238.738186  L 365.042558 -238.367557  L 364.432611 -237.996928  L 363.822664 -237.626299  L 363.212716 -237.255669  L 362.602769 -236.88504  L 361.992822 -236.514411  L 361.382875 -236.143782  L 360.772928 -235.773153  L 360.162981 -235.402524  L 359.553033 -235.031895  L 358.943086 -234.661266  L 358.333139 -234.290637  L 357.723192 -233.920008  L 357.113245 -233.549379  L 356.503298 -233.17875  L 355.89335 -232.808121  L 355.283403 -232.437492  L 354.673456 -232.066862  L 354.063509 -231.696233  L 353.453562 -231.325604  L 352.843615 -230.954975  L 352.233667 -230.584346  L 351.62372 -230.213717  L 351.013773 -229.843088  L 350.403826 -229.472459  L 349.793879 -229.10183  L 349.183931 -228.731201  L 348.573984 -228.360572  L 347.964037 -227.989943  L 347.35409 -227.619314  L 346.744143 -227.248685  L 346.134196 -226.878055  L 345.524248 -226.507426  L 344.914301 -226.136797  L 344.304354 -225.766168  L 343.694407 -225.395539  L 343.08446 -225.02491  L 342.474513 -224.654281  L 341.864565 -224.283652  L 341.254618 -223.913023  L 340.644671 -223.542394  L 340.034724 -223.171765  L 339.424777 -222.801136  L 338.81483 -222.430507  L 338.204882 -222.059878  L 337.594935 -221.689248  L 336.984988 -221.318619  L 336.375041 -220.94799  L 335.765094 -220.577361  L 335.155147 -220.206732  L 334.545199 -219.836103  L 333.935252 -219.465474  L 333.325305 -219.094845  L 332.715358 -218.724216  L 332.105411 -218.353587  L 331.495464 -217.982958  L 330.885516 -217.612329  L 330.275569 -217.2417  L 329.665622 -216.871071  L 329.055675 -216.500442  L 328.445728 -216.129812  L 327.835781 -215.759183  L 327.225833 -215.388554  L 326.615886 -215.017925  L 326.005939 -214.647296  L 325.395992 -214.276667  L 324.786045 -213.906038  L 324.176098 -213.535409  L 323.56615 -213.16478  L 322.956203 -212.794151  L 322.346256 -212.423522  L 321.736309 -212.052893  L 321.126362 -211.682264  L 320.516415 -211.311635  L 319.906467 -210.941005  L 319.29652 -210.570376  L 318.686573 -210.199747  L 318.076626 -209.829118  L 317.466679 -209.458489  L 316.856732 -209.08786  L 316.246784 -208.717231  L 315.636837 -208.346602  L 315.02689 -207.975973  L 314.416943 -207.605344  L 313.806996 -207.234715  L 313.197049 -206.864086  L 312.587101 -206.493457  L 311.977154 -206.122828  L 311.367207 -205.752198  L 310.75726 -205.381569  L 310.147313 -205.01094  L 309.537366 -204.640311  L 308.927418 -204.269682  L 308.317471 -203.899053  L 307.707524 -203.528424  L 307.097577 -203.157795  L 306.48763 -202.787166  L 305.877683 -202.416537  L 305.267735 -202.045908  L 304.657788 -201.675279  L 304.047841 -201.30465  L 303.437894 -200.934021  L 302.827947 -200.563391  L 302.218 -200.192762  L 301.608052 -199.822133  L 300.998105 -199.451504  L 300.388158 -199.080875  L 299.778211 -198.710246  L 299.168264 -198.339617  L 298.558317 -197.968988  L 297.948369 -197.598359  L 297.338422 -197.22773  L 296.728475 -196.857101  L 296.118528 -196.486472  L 295.508581 -196.115843  L 294.898634 -195.745214  L 294.288686 -195.374584  L 293.678739 -195.003955  L 293.068792 -194.633326  L 292.458845 -194.262697  L 291.848898 -193.892068  L 291.238951 -193.521439  L 290.629003 -193.15081  L 290.019056 -192.780181  L 289.409109 -192.409552  L 288.799162 -192.038923  L 288.189215 -191.668294  L 287.579268 -191.297665  L 286.96932 -190.927036  L 286.359373 -190.556407  L 285.749426 -190.185778  L 285.139479 -189.815148  L 284.529532 -189.444519  L 283.919585 -189.07389  L 283.309637 -188.703261  L 282.69969 -188.332632  L 282.089743 -187.962003  L 281.479796 -187.591374  L 280.869849 -187.220745  L 280.259902 -186.850116  L 279.649954 -186.479487  L 279.040007 -186.108858  L 278.43006 -185.738229  L 277.820113 -185.3676  L 277.210166 -184.996971  L 276.600219 -184.626341  L 275.990271 -184.255712  L 275.380324 -183.885083  L 274.770377 -183.514454  L 274.16043 -183.143825  L 273.550483 -182.773196  L 272.940536 -182.402567  L 272.330588 -182.031938  L 271.720641 -181.661309  L 271.110694 -181.29068  L 270.500747 -180.920051  L 269.8908 -180.549422  L 269.280853 -180.178793  L 268.670905 -179.808164  L 268.060958 -179.437534  L 267.451011 -179.066905  L 266.841064 -178.696276  L 266.231117 -178.325647  L 265.62117 -177.955018  L 265.011222 -177.584389  L 264.401275 -177.21376  L 263.791328 -176.843131  L 263.181381 -176.472502  L 262.571434 -176.101873  L 261.961487 -175.731244  L 261.351539 -175.360615  L 260.741592 -174.989986  L 260.131645 -174.619357  L 259.521698 -174.248727  L 258.911751 -173.878098  L 258.301804 -173.507469  L 257.691856 -173.13684  L 257.081909 -172.766211  L 256.471962 -172.395582  L 255.862015 -172.024953  L 255.252068 -171.654324  L 254.642121 -171.283695  L 254.032173 -170.913066  L 253.422226 -170.542437  L 252.812279 -170.171808  L 252.202332 -169.801179  L 251.592385 -169.43055  L 250.982438 -169.05992  L 250.37249 -168.689291  L 249.762543 -168.318662  L 249.152596 -167.948033  L 248.542649 -167.577404  L 247.932702 -167.206775  L 247.322755 -166.836146  L 246.712807 -166.465517  L 246.10286 -166.094888  L 245.492913 -165.724259  L 244.882966 -165.35363  L 244.273019 -164.983001  L 243.663072 -164.612372  L 243.053124 -164.241743  L 242.443177 -163.871114  L 241.83323 -163.500484  L 241.223283 -163.129855  L 240.613336 -162.759226  L 240.003389 -162.388597  L 239.393441 -162.017968  L 238.783494 -161.647339  L 238.173547 -161.27671  L 237.5636 -160.906081  L 236.953653 -160.535452  L 236.343706 -160.164823  L 235.733758 -159.794194  L 235.123811 -159.423565  L 234.513864 -159.052936  L 233.903917 -158.682307  L 233.29397 -158.311677  L 232.684023 -157.941048  L 232.074075 -157.570419  L 231.464128 -157.19979  L 230.854181 -156.829161  L 230.244234 -156.458532  L 229.634287 -156.087903  L 229.02434 -155.717274  L 228.414392 -155.346645  L 227.804445 -154.976016  L 227.194498 -154.605387  L 226.584551 -154.234758  L 225.974604 -153.864129  L 225.364657 -153.4935  L 224.754709 -153.12287  L 224.144762 -152.752241  L 223.534815 -152.381612  L 222.924868 -152.010983  L 222.314921 -151.640354  L 221.704974 -151.269725  L 221.095026 -150.899096  L 220.485079 -150.528467  L 219.875132 -150.157838  L 219.265185 -149.787209  L 218.655238 -149.41658  L 218.045291 -149.045951  L 217.435343 -148.675322  L 216.825396 -148.304693  L 216.215449 -147.934063  L 215.605502 -147.563434  L 214.995555 -147.192805  L 214.385608 -146.822176  L 213.77566 -146.451547  L 213.165713 -146.080918  L 212.555766 -145.710289  L 211.945819 -145.33966  L 211.335872 -144.969031  L 210.725925 -144.598402  L 210.115977 -144.227773  L 209.50603 -143.857144  L 208.896083 -143.486515  L 208.286136 -143.115886  L 207.676189 -142.745257  L 207.066242 -142.374627  L 206.456294 -142.003998  L 205.846347 -141.633369  L 205.2364 -141.26274  L 204.626453 -140.892111  L 204.016506 -140.521482  L 203.406559 -140.150853  L 202.796611 -139.780224  L 202.186664 -139.409595  L 201.576717 -139.038966  L 200.96677 -138.668337  L 200.356823 -138.297708  L 199.746876 -137.927079  L 199.136928 -137.55645  L 198.526981 -137.18582  L 197.917034 -136.815191  L 197.307087 -136.444562  L 196.69714 -136.073933  L 196.087193 -135.703304  L 195.477245 -135.332675  L 194.867298 -134.962046  L 194.257351 -134.591417  L 193.647404 -134.220788  L 193.037457 -133.850159  L 192.42751 -133.47953  L 191.817562 -133.108901  L 191.207615 -132.738272  L 190.597668 -132.367643  L 189.987721 -131.997013  L 189.377774 -131.626384  L 188.767827 -131.255755  L 188.157879 -130.885126  L 187.547932 -130.514497  L 186.937985 -130.143868  L 186.328038 -129.773239  L 185.718091 -129.40261  L 185.108144 -129.031981  L 184.498196 -128.661352  L 183.888249 -128.290723  L 183.278302 -127.920094  L 182.668355 -127.549465  L 182.058408 -127.178836  L 181.448461 -126.808206  L 180.838513 -126.437577  L 180.228566 -126.066948  L 179.618619 -125.696319  L 179.008672 -125.32569  L 178.398725 -124.955061  L 177.788778 -124.584432  L 177.17883 -124.213803  L 176.568883 -123.843174  L 175.958936 -123.472545  L 175.348989 -123.101916  L 174.739042 -122.731287  L 174.129095 -122.360658  L 173.519147 -121.990029  L 172.9092 -121.619399  L 172.299253 -121.24877  L 171.689306 -120.878141  L 171.079359 -120.507512  L 170.469412 -120.136883  L 169.859464 -119.766254  L 169.249517 -119.395625  L 168.63957 -119.024996  L 168.029623 -118.654367  L 167.419676 -118.283738  L 166.809729 -117.913109  L 166.199781 -117.54248  L 165.589834 -117.171851  L 164.979887 -116.801222  L 164.36994 -116.430593  L 163.759993 -116.059963  L 163.150046 -115.689334  L 162.540098 -115.318705  L 161.930151 -114.948076  L 161.320204 -114.577447  L 160.710257 -114.206818  L 160.10031 -113.836189  L 159.490363 -113.46556  L 158.880415 -113.094931  L 158.270468 -112.724302  L 157.660521 -112.353673  L 157.050574 -111.983044  L 156.440627 -111.612415  L 155.83068 -111.241786  L 155.220732 -110.871156  L 154.610785 -110.500527  L 154.000838 -110.129898  L 153.390891 -109.759269  L 152.780944 -109.38864  L 152.170997 -109.018011  L 151.561049 -108.647382  L 150.951102 -108.276753  L 150.341155 -107.906124  L 149.731208 -107.535495  L 149.121261 -107.164866  L 148.511314 -106.794237  L 147.901366 -106.423608  L 147.291419 -106.052979  L 146.681472 -105.682349  L 146.071525 -105.31172  L 145.461578 -104.941091  L 144.851631 -104.570462  L 144.241683 -104.199833  L 143.631736 -103.829204  L 143.021789 -103.458575  L 142.411842 -103.087946  L 141.801895 -102.717317  L 141.191948 -102.346688  L 140.582 -101.976059  L 139.972053 -101.60543  L 139.362106 -101.234801  L 138.752159 -100.864172  L 138.142212 -100.493542  L 137.532265 -100.122913  L 136.922317 -99.752284  L 136.31237 -99.381655  L 135.702423 -99.011026  L 135.092476 -98.640397  L 134.482529 -98.269768  L 133.872582 -97.899139  L 133.262634 -97.52851  L 132.652687 -97.157881  L 132.04274 -96.787252  L 131.432793 -96.416623  L 130.822846 -96.045994  L 130.212899 -95.675365  L 129.602951 -95.304735  L 128.993004 -94.934106  L 128.383057 -94.563477  L 127.77311 -94.192848  L 127.163163 -93.822219  L 126.553216 -93.45159  L 125.943268 -93.080961  L 125.333321 -92.710332  L 124.723374 -92.339703  L 124.113427 -91.969074  L 123.50348 -91.598445  L 122.893533 -91.227816  L 122.283585 -90.857187  L 121.673638 -90.486558  L 121.063691 -90.115929  L 120.453744 -89.745299  L 119.843797 -89.37467  L 119.23385 -89.004041  L 118.623902 -88.633412  L 118.013955 -88.262783  L 117.404008 -87.892154  L 116.794061 -87.521525  L 116.184114 -87.150896  L 115.574167 -86.780267  L 114.964219 -86.409638  L 114.354272 -86.039009  L 113.744325 -85.66838  L 113.134378 -85.297751  L 112.524431 -84.927122  L 111.914484 -84.556492  L 111.304536 -84.185863  L 110.694589 -83.815234  L 110.084642 -83.444605  L 109.474695 -83.073976  L 108.864748 -82.703347  L 108.254801 -82.332718  L 107.644853 -81.962089  L 107.034906 -81.59146  L 106.424959 -81.220831  L 105.815012 -80.850202  L 105.205065 -80.479573  L 104.595118 -80.108944  L 103.98517 -79.738315  L 103.375223 -79.367685  L 102.765276 -78.997056  L 102.155329 -78.626427  L 101.545382 -78.255798  L 100.935435 -77.885169  L 100.325487 -77.51454  L 99.71554 -77.143911  L 99.105593 -76.773282  L 98.495646 -76.402653  L 97.885699 -76.032024  L 97.275752 -75.661395  L 96.665804 -75.290766  L 96.055857 -74.920137  L 95.44591 -74.549508  L 94.835963 -74.178878  L 94.226016 -73.808249  L 93.616069 -73.43762  L 93.006121 -73.066991  L 92.396174 -72.696362  L 91.786227 -72.325733  L 91.17628 -71.955104  L 90.566333 -71.584475  L 89.956385 -71.213846  L 89.346438 -70.843217  L 88.736491 -70.472588  L 88.126544 -70.101959  L 87.516597 -69.73133  L 86.90665 -69.360701  L 86.296702 -68.990072  L 85.686755 -68.619442  L 85.076808 -68.248813  L 84.466861 -67.878184  L 83.856914 -67.507555  L 83.246967 -67.136926  L 82.637019 -66.766297  L 82.027072 -66.395668  L 81.417125 -66.025039  L 80.807178 -65.65441  L 80.197231 -65.283781  L 79.587284 -64.913152  L 78.977336 -64.542523  L 78.367389 -64.171894  L 77.757442 -63.801265  L 77.147495 -63.430635  L 76.537548 -63.060006  L 75.927601 -62.689377  L 75.317653 -62.318748  L 74.707706 -61.948119  L 74.097759 -61.57749  L 73.487812 -61.206861  L 72.877865 -60.836232  L 72.267918 -60.465603  L 71.65797 -60.094974  L 71.048023 -59.724345  L 70.438076 -59.353716  L 69.828129 -58.983087  L 69.218182 -58.612458  z "
             id="mb70a52c888"
             style="stroke:#ff0000;stroke-opacity:0.1;" />
        </defs>
        <g
           clip-path="url(#p67818ec045)"
           id="g28">
          <use
             style="fill:#ff0000;fill-opacity:0.1;stroke:#ff0000;stroke-opacity:0.1;"
             x="0"
             xlink:href="#mb70a52c888"
             y="288"
             id="use30" />
        </g>
      </g>
      <g
         id="matplotlib.axis_1">
        <g
           id="xtick_1">
          <g
             id="line2d_1">
            <defs
               id="defs35">
              <path
                 d="M 0 0  L 0 3.5  "
                 id="m9bfea58f57"
                 style="stroke:#000000;stroke-width:0.8;" />
            </defs>
            <g
               id="g38">
              <use
                 style="stroke:#000000;stroke-width:0.8;"
                 x="69.218182"
                 xlink:href="#m9bfea58f57"
                 y="252"
                 id="use40" />
            </g>
          </g>
          <g
             id="text_1">
            <!-- 0 -->
            <defs
               id="defs43">
              <path
                 d="M 31.78125 66.40625  Q 24.171875 66.40625 20.328125 58.90625  Q 16.5 51.421875 16.5 36.375  Q 16.5 21.390625 20.328125 13.890625  Q 24.171875 6.390625 31.78125 6.390625  Q 39.453125 6.390625 43.28125 13.890625  Q 47.125 21.390625 47.125 36.375  Q 47.125 51.421875 43.28125 58.90625  Q 39.453125 66.40625 31.78125 66.40625  z M 31.78125 74.21875  Q 44.046875 74.21875 50.515625 64.515625  Q 56.984375 54.828125 56.984375 36.375  Q 56.984375 17.96875 50.515625 8.265625  Q 44.046875 -1.421875 31.78125 -1.421875  Q 19.53125 -1.421875 13.0625 8.265625  Q 6.59375 17.96875 6.59375 36.375  Q 6.59375 54.828125 13.0625 64.515625  Q 19.53125 74.21875 31.78125 74.21875  z "
                 id="DejaVuSans-48" />
            </defs>
            <g
               transform="translate(66.036932 266.598437)scale(0.1 -0.1)"
               id="g46">
              <use
                 xlink:href="#DejaVuSans-48"
                 id="use48" />
            </g>
          </g>
        </g>
        <g
           id="xtick_2">
          <g
             id="line2d_2">
            <g
               id="g52">
              <use
                 style="stroke:#000000;stroke-width:0.8;"
                 x="130.090909"
                 xlink:href="#m9bfea58f57"
                 y="252"
                 id="use54" />
            </g>
          </g>
          <g
             id="text_2">
            <!-- 100 -->
            <defs
               id="defs57">
              <path
                 d="M 12.40625 8.296875  L 28.515625 8.296875  L 28.515625 63.921875  L 10.984375 60.40625  L 10.984375 69.390625  L 28.421875 72.90625  L 38.28125 72.90625  L 38.28125 8.296875  L 54.390625 8.296875  L 54.390625 0  L 12.40625 0  z "
                 id="DejaVuSans-49" />
            </defs>
            <g
               transform="translate(120.547159 266.598437)scale(0.1 -0.1)"
               id="g60">
              <use
                 xlink:href="#DejaVuSans-49"
                 id="use62" />
              <use
                 x="63.623047"
                 xlink:href="#DejaVuSans-48"
                 id="use64" />
              <use
                 x="127.246094"
                 xlink:href="#DejaVuSans-48"
                 id="use66" />
            </g>
          </g>
        </g>
        <g
           id="xtick_3">
          <g
             id="line2d_3">
            <g
               id="g70">
              <use
                 style="stroke:#000000;stroke-width:0.8;"
                 x="190.963636"
                 xlink:href="#m9bfea58f57"
                 y="252"
                 id="use72" />
            </g>
          </g>
          <g
             id="text_3">
            <!-- 200 -->
            <defs
               id="defs75">
              <path
                 d="M 19.1875 8.296875  L 53.609375 8.296875  L 53.609375 0  L 7.328125 0  L 7.328125 8.296875  Q 12.9375 14.109375 22.625 23.890625  Q 32.328125 33.6875 34.8125 36.53125  Q 39.546875 41.84375 41.421875 45.53125  Q 43.3125 49.21875 43.3125 52.78125  Q 43.3125 58.59375 39.234375 62.25  Q 35.15625 65.921875 28.609375 65.921875  Q 23.96875 65.921875 18.8125 64.3125  Q 13.671875 62.703125 7.8125 59.421875  L 7.8125 69.390625  Q 13.765625 71.78125 18.9375 73  Q 24.125 74.21875 28.421875 74.21875  Q 39.75 74.21875 46.484375 68.546875  Q 53.21875 62.890625 53.21875 53.421875  Q 53.21875 48.921875 51.53125 44.890625  Q 49.859375 40.875 45.40625 35.40625  Q 44.1875 33.984375 37.640625 27.21875  Q 31.109375 20.453125 19.1875 8.296875  z "
                 id="DejaVuSans-50" />
            </defs>
            <g
               transform="translate(181.419886 266.598437)scale(0.1 -0.1)"
               id="g78">
              <use
                 xlink:href="#DejaVuSans-50"
                 id="use80" />
              <use
                 x="63.623047"
                 xlink:href="#DejaVuSans-48"
                 id="use82" />
              <use
                 x="127.246094"
                 xlink:href="#DejaVuSans-48"
                 id="use84" />
            </g>
          </g>
        </g>
        <g
           id="xtick_4">
          <g
             id="line2d_4">
            <g
               id="g88">
              <use
                 style="stroke:#000000;stroke-width:0.8;"
                 x="251.836364"
                 xlink:href="#m9bfea58f57"
                 y="252"
                 id="use90" />
            </g>
          </g>
          <g
             id="text_4">
            <!-- 300 -->
            <defs
               id="defs93">
              <path
                 d="M 40.578125 39.3125  Q 47.65625 37.796875 51.625 33  Q 55.609375 28.21875 55.609375 21.1875  Q 55.609375 10.40625 48.1875 4.484375  Q 40.765625 -1.421875 27.09375 -1.421875  Q 22.515625 -1.421875 17.65625 -0.515625  Q 12.796875 0.390625 7.625 2.203125  L 7.625 11.71875  Q 11.71875 9.328125 16.59375 8.109375  Q 21.484375 6.890625 26.8125 6.890625  Q 36.078125 6.890625 40.9375 10.546875  Q 45.796875 14.203125 45.796875 21.1875  Q 45.796875 27.640625 41.28125 31.265625  Q 36.765625 34.90625 28.71875 34.90625  L 20.21875 34.90625  L 20.21875 43.015625  L 29.109375 43.015625  Q 36.375 43.015625 40.234375 45.921875  Q 44.09375 48.828125 44.09375 54.296875  Q 44.09375 59.90625 40.109375 62.90625  Q 36.140625 65.921875 28.71875 65.921875  Q 24.65625 65.921875 20.015625 65.03125  Q 15.375 64.15625 9.8125 62.3125  L 9.8125 71.09375  Q 15.4375 72.65625 20.34375 73.4375  Q 25.25 74.21875 29.59375 74.21875  Q 40.828125 74.21875 47.359375 69.109375  Q 53.90625 64.015625 53.90625 55.328125  Q 53.90625 49.265625 50.4375 45.09375  Q 46.96875 40.921875 40.578125 39.3125  z "
                 id="DejaVuSans-51" />
            </defs>
            <g
               transform="translate(242.292614 266.598437)scale(0.1 -0.1)"
               id="g96">
              <use
                 xlink:href="#DejaVuSans-51"
                 id="use98" />
              <use
                 x="63.623047"
                 xlink:href="#DejaVuSans-48"
                 id="use100" />
              <use
                 x="127.246094"
                 xlink:href="#DejaVuSans-48"
                 id="use102" />
            </g>
          </g>
        </g>
        <g
           id="xtick_5">
          <g
             id="line2d_5">
            <g
               id="g106">
              <use
                 style="stroke:#000000;stroke-width:0.8;"
                 x="312.709091"
                 xlink:href="#m9bfea58f57"
                 y="252"
                 id="use108" />
            </g>
          </g>
          <g
             id="text_5">
            <!-- 400 -->
            <defs
               id="defs111">
              <path
                 d="M 37.796875 64.3125  L 12.890625 25.390625  L 37.796875 25.390625  z M 35.203125 72.90625  L 47.609375 72.90625  L 47.609375 25.390625  L 58.015625 25.390625  L 58.015625 17.1875  L 47.609375 17.1875  L 47.609375 0  L 37.796875 0  L 37.796875 17.1875  L 4.890625 17.1875  L 4.890625 26.703125  z "
                 id="DejaVuSans-52" />
            </defs>
            <g
               transform="translate(303.165341 266.598437)scale(0.1 -0.1)"
               id="g114">
              <use
                 xlink:href="#DejaVuSans-52"
                 id="use116" />
              <use
                 x="63.623047"
                 xlink:href="#DejaVuSans-48"
                 id="use118" />
              <use
                 x="127.246094"
                 xlink:href="#DejaVuSans-48"
                 id="use120" />
            </g>
          </g>
        </g>
        <g
           id="xtick_6">
          <g
             id="line2d_6">
            <g
               id="g124">
              <use
                 style="stroke:#000000;stroke-width:0.8;"
                 x="373.581818"
                 xlink:href="#m9bfea58f57"
                 y="252"
                 id="use126" />
            </g>
          </g>
          <g
             id="text_6">
            <!-- 500 -->
            <defs
               id="defs129">
              <path
                 d="M 10.796875 72.90625  L 49.515625 72.90625  L 49.515625 64.59375  L 19.828125 64.59375  L 19.828125 46.734375  Q 21.96875 47.46875 24.109375 47.828125  Q 26.265625 48.1875 28.421875 48.1875  Q 40.625 48.1875 47.75 41.5  Q 54.890625 34.8125 54.890625 23.390625  Q 54.890625 11.625 47.5625 5.09375  Q 40.234375 -1.421875 26.90625 -1.421875  Q 22.3125 -1.421875 17.546875 -0.640625  Q 12.796875 0.140625 7.71875 1.703125  L 7.71875 11.625  Q 12.109375 9.234375 16.796875 8.0625  Q 21.484375 6.890625 26.703125 6.890625  Q 35.15625 6.890625 40.078125 11.328125  Q 45.015625 15.765625 45.015625 23.390625  Q 45.015625 31 40.078125 35.4375  Q 35.15625 39.890625 26.703125 39.890625  Q 22.75 39.890625 18.8125 39.015625  Q 14.890625 38.140625 10.796875 36.28125  z "
                 id="DejaVuSans-53" />
            </defs>
            <g
               transform="translate(364.038068 266.598437)scale(0.1 -0.1)"
               id="g132">
              <use
                 xlink:href="#DejaVuSans-53"
                 id="use134" />
              <use
                 x="63.623047"
                 xlink:href="#DejaVuSans-48"
                 id="use136" />
              <use
                 x="127.246094"
                 xlink:href="#DejaVuSans-48"
                 id="use138" />
            </g>
          </g>
        </g>
        <g
           id="text_7">
          <!-- training episodes -->
          <defs
             id="defs141">
            <path
               d="M 18.3125 70.21875  L 18.3125 54.6875  L 36.8125 54.6875  L 36.8125 47.703125  L 18.3125 47.703125  L 18.3125 18.015625  Q 18.3125 11.328125 20.140625 9.421875  Q 21.96875 7.515625 27.59375 7.515625  L 36.8125 7.515625  L 36.8125 0  L 27.59375 0  Q 17.1875 0 13.234375 3.875  Q 9.28125 7.765625 9.28125 18.015625  L 9.28125 47.703125  L 2.6875 47.703125  L 2.6875 54.6875  L 9.28125 54.6875  L 9.28125 70.21875  z "
               id="DejaVuSans-116" />
            <path
               d="M 41.109375 46.296875  Q 39.59375 47.171875 37.8125 47.578125  Q 36.03125 48 33.890625 48  Q 26.265625 48 22.1875 43.046875  Q 18.109375 38.09375 18.109375 28.8125  L 18.109375 0  L 9.078125 0  L 9.078125 54.6875  L 18.109375 54.6875  L 18.109375 46.1875  Q 20.953125 51.171875 25.484375 53.578125  Q 30.03125 56 36.53125 56  Q 37.453125 56 38.578125 55.875  Q 39.703125 55.765625 41.0625 55.515625  z "
               id="DejaVuSans-114" />
            <path
               d="M 34.28125 27.484375  Q 23.390625 27.484375 19.1875 25  Q 14.984375 22.515625 14.984375 16.5  Q 14.984375 11.71875 18.140625 8.90625  Q 21.296875 6.109375 26.703125 6.109375  Q 34.1875 6.109375 38.703125 11.40625  Q 43.21875 16.703125 43.21875 25.484375  L 43.21875 27.484375  z M 52.203125 31.203125  L 52.203125 0  L 43.21875 0  L 43.21875 8.296875  Q 40.140625 3.328125 35.546875 0.953125  Q 30.953125 -1.421875 24.3125 -1.421875  Q 15.921875 -1.421875 10.953125 3.296875  Q 6 8.015625 6 15.921875  Q 6 25.140625 12.171875 29.828125  Q 18.359375 34.515625 30.609375 34.515625  L 43.21875 34.515625  L 43.21875 35.40625  Q 43.21875 41.609375 39.140625 45  Q 35.0625 48.390625 27.6875 48.390625  Q 23 48.390625 18.546875 47.265625  Q 14.109375 46.140625 10.015625 43.890625  L 10.015625 52.203125  Q 14.9375 54.109375 19.578125 55.046875  Q 24.21875 56 28.609375 56  Q 40.484375 56 46.34375 49.84375  Q 52.203125 43.703125 52.203125 31.203125  z "
               id="DejaVuSans-97" />
            <path
               d="M 9.421875 54.6875  L 18.40625 54.6875  L 18.40625 0  L 9.421875 0  z M 9.421875 75.984375  L 18.40625 75.984375  L 18.40625 64.59375  L 9.421875 64.59375  z "
               id="DejaVuSans-105" />
            <path
               d="M 54.890625 33.015625  L 54.890625 0  L 45.90625 0  L 45.90625 32.71875  Q 45.90625 40.484375 42.875 44.328125  Q 39.84375 48.1875 33.796875 48.1875  Q 26.515625 48.1875 22.3125 43.546875  Q 18.109375 38.921875 18.109375 30.90625  L 18.109375 0  L 9.078125 0  L 9.078125 54.6875  L 18.109375 54.6875  L 18.109375 46.1875  Q 21.34375 51.125 25.703125 53.5625  Q 30.078125 56 35.796875 56  Q 45.21875 56 50.046875 50.171875  Q 54.890625 44.34375 54.890625 33.015625  z "
               id="DejaVuSans-110" />
            <path
               d="M 45.40625 27.984375  Q 45.40625 37.75 41.375 43.109375  Q 37.359375 48.484375 30.078125 48.484375  Q 22.859375 48.484375 18.828125 43.109375  Q 14.796875 37.75 14.796875 27.984375  Q 14.796875 18.265625 18.828125 12.890625  Q 22.859375 7.515625 30.078125 7.515625  Q 37.359375 7.515625 41.375 12.890625  Q 45.40625 18.265625 45.40625 27.984375  z M 54.390625 6.78125  Q 54.390625 -7.171875 48.1875 -13.984375  Q 42 -20.796875 29.203125 -20.796875  Q 24.46875 -20.796875 20.265625 -20.09375  Q 16.0625 -19.390625 12.109375 -17.921875  L 12.109375 -9.1875  Q 16.0625 -11.328125 19.921875 -12.34375  Q 23.78125 -13.375 27.78125 -13.375  Q 36.625 -13.375 41.015625 -8.765625  Q 45.40625 -4.15625 45.40625 5.171875  L 45.40625 9.625  Q 42.625 4.78125 38.28125 2.390625  Q 33.9375 0 27.875 0  Q 17.828125 0 11.671875 7.65625  Q 5.515625 15.328125 5.515625 27.984375  Q 5.515625 40.671875 11.671875 48.328125  Q 17.828125 56 27.875 56  Q 33.9375 56 38.28125 53.609375  Q 42.625 51.21875 45.40625 46.390625  L 45.40625 54.6875  L 54.390625 54.6875  z "
               id="DejaVuSans-103" />
            <path
               id="DejaVuSans-32" />
            <path
               d="M 56.203125 29.59375  L 56.203125 25.203125  L 14.890625 25.203125  Q 15.484375 15.921875 20.484375 11.0625  Q 25.484375 6.203125 34.421875 6.203125  Q 39.59375 6.203125 44.453125 7.46875  Q 49.3125 8.734375 54.109375 11.28125  L 54.109375 2.78125  Q 49.265625 0.734375 44.1875 -0.34375  Q 39.109375 -1.421875 33.890625 -1.421875  Q 20.796875 -1.421875 13.15625 6.1875  Q 5.515625 13.8125 5.515625 26.8125  Q 5.515625 40.234375 12.765625 48.109375  Q 20.015625 56 32.328125 56  Q 43.359375 56 49.78125 48.890625  Q 56.203125 41.796875 56.203125 29.59375  z M 47.21875 32.234375  Q 47.125 39.59375 43.09375 43.984375  Q 39.0625 48.390625 32.421875 48.390625  Q 24.90625 48.390625 20.390625 44.140625  Q 15.875 39.890625 15.1875 32.171875  z "
               id="DejaVuSans-101" />
            <path
               d="M 18.109375 8.203125  L 18.109375 -20.796875  L 9.078125 -20.796875  L 9.078125 54.6875  L 18.109375 54.6875  L 18.109375 46.390625  Q 20.953125 51.265625 25.265625 53.625  Q 29.59375 56 35.59375 56  Q 45.5625 56 51.78125 48.09375  Q 58.015625 40.1875 58.015625 27.296875  Q 58.015625 14.40625 51.78125 6.484375  Q 45.5625 -1.421875 35.59375 -1.421875  Q 29.59375 -1.421875 25.265625 0.953125  Q 20.953125 3.328125 18.109375 8.203125  z M 48.6875 27.296875  Q 48.6875 37.203125 44.609375 42.84375  Q 40.53125 48.484375 33.40625 48.484375  Q 26.265625 48.484375 22.1875 42.84375  Q 18.109375 37.203125 18.109375 27.296875  Q 18.109375 17.390625 22.1875 11.75  Q 26.265625 6.109375 33.40625 6.109375  Q 40.53125 6.109375 44.609375 11.75  Q 48.6875 17.390625 48.6875 27.296875  z "
               id="DejaVuSans-112" />
            <path
               d="M 44.28125 53.078125  L 44.28125 44.578125  Q 40.484375 46.53125 36.375 47.5  Q 32.28125 48.484375 27.875 48.484375  Q 21.1875 48.484375 17.84375 46.4375  Q 14.5 44.390625 14.5 40.28125  Q 14.5 37.15625 16.890625 35.375  Q 19.28125 33.59375 26.515625 31.984375  L 29.59375 31.296875  Q 39.15625 29.25 43.1875 25.515625  Q 47.21875 21.78125 47.21875 15.09375  Q 47.21875 7.46875 41.1875 3.015625  Q 35.15625 -1.421875 24.609375 -1.421875  Q 20.21875 -1.421875 15.453125 -0.5625  Q 10.6875 0.296875 5.421875 2  L 5.421875 11.28125  Q 10.40625 8.6875 15.234375 7.390625  Q 20.0625 6.109375 24.8125 6.109375  Q 31.15625 6.109375 34.5625 8.28125  Q 37.984375 10.453125 37.984375 14.40625  Q 37.984375 18.0625 35.515625 20.015625  Q 33.0625 21.96875 24.703125 23.78125  L 21.578125 24.515625  Q 13.234375 26.265625 9.515625 29.90625  Q 5.8125 33.546875 5.8125 39.890625  Q 5.8125 47.609375 11.28125 51.796875  Q 16.75 56 26.8125 56  Q 31.78125 56 36.171875 55.265625  Q 40.578125 54.546875 44.28125 53.078125  z "
               id="DejaVuSans-115" />
            <path
               d="M 30.609375 48.390625  Q 23.390625 48.390625 19.1875 42.75  Q 14.984375 37.109375 14.984375 27.296875  Q 14.984375 17.484375 19.15625 11.84375  Q 23.34375 6.203125 30.609375 6.203125  Q 37.796875 6.203125 41.984375 11.859375  Q 46.1875 17.53125 46.1875 27.296875  Q 46.1875 37.015625 41.984375 42.703125  Q 37.796875 48.390625 30.609375 48.390625  z M 30.609375 56  Q 42.328125 56 49.015625 48.375  Q 55.71875 40.765625 55.71875 27.296875  Q 55.71875 13.875 49.015625 6.21875  Q 42.328125 -1.421875 30.609375 -1.421875  Q 18.84375 -1.421875 12.171875 6.21875  Q 5.515625 13.875 5.515625 27.296875  Q 5.515625 40.765625 12.171875 48.375  Q 18.84375 56 30.609375 56  z "
               id="DejaVuSans-111" />
            <path
               d="M 45.40625 46.390625  L 45.40625 75.984375  L 54.390625 75.984375  L 54.390625 0  L 45.40625 0  L 45.40625 8.203125  Q 42.578125 3.328125 38.25 0.953125  Q 33.9375 -1.421875 27.875 -1.421875  Q 17.96875 -1.421875 11.734375 6.484375  Q 5.515625 14.40625 5.515625 27.296875  Q 5.515625 40.1875 11.734375 48.09375  Q 17.96875 56 27.875 56  Q 33.9375 56 38.25 53.625  Q 42.578125 51.265625 45.40625 46.390625  z M 14.796875 27.296875  Q 14.796875 17.390625 18.875 11.75  Q 22.953125 6.109375 30.078125 6.109375  Q 37.203125 6.109375 41.296875 11.75  Q 45.40625 17.390625 45.40625 27.296875  Q 45.40625 37.203125 41.296875 42.84375  Q 37.203125 48.484375 30.078125 48.484375  Q 22.953125 48.484375 18.875 42.84375  Q 14.796875 37.203125 14.796875 27.296875  z "
               id="DejaVuSans-100" />
          </defs>
          <g
             transform="translate(178.282031 280.276563)scale(0.1 -0.1)"
             id="g155">
            <use
               xlink:href="#DejaVuSans-116"
               id="use157" />
            <use
               x="39.208984"
               xlink:href="#DejaVuSans-114"
               id="use159" />
            <use
               x="80.322266"
               xlink:href="#DejaVuSans-97"
               id="use161" />
            <use
               x="141.601562"
               xlink:href="#DejaVuSans-105"
               id="use163" />
            <use
               x="169.384766"
               xlink:href="#DejaVuSans-110"
               id="use165" />
            <use
               x="232.763672"
               xlink:href="#DejaVuSans-105"
               id="use167" />
            <use
               x="260.546875"
               xlink:href="#DejaVuSans-110"
               id="use169" />
            <use
               x="323.925781"
               xlink:href="#DejaVuSans-103"
               id="use171" />
            <use
               x="387.402344"
               xlink:href="#DejaVuSans-32"
               id="use173" />
            <use
               x="419.189453"
               xlink:href="#DejaVuSans-101"
               id="use175" />
            <use
               x="480.712891"
               xlink:href="#DejaVuSans-112"
               id="use177" />
            <use
               x="544.189453"
               xlink:href="#DejaVuSans-105"
               id="use179" />
            <use
               x="571.972656"
               xlink:href="#DejaVuSans-115"
               id="use181" />
            <use
               x="624.072266"
               xlink:href="#DejaVuSans-111"
               id="use183" />
            <use
               x="685.253906"
               xlink:href="#DejaVuSans-100"
               id="use185" />
            <use
               x="748.730469"
               xlink:href="#DejaVuSans-101"
               id="use187" />
            <use
               x="810.253906"
               xlink:href="#DejaVuSans-115"
               id="use189" />
          </g>
        </g>
      </g>
      <g
         id="matplotlib.axis_2">
        <g
           id="ytick_1">
          <g
             id="line2d_7">
            <defs
               id="defs194">
              <path
                 d="M 0 0  L -3.5 0  "
                 id="m36a12031fb"
                 style="stroke:#000000;stroke-width:0.8;" />
            </defs>
            <g
               id="g197">
              <use
                 style="stroke:#000000;stroke-width:0.8;"
                 x="54"
                 xlink:href="#m36a12031fb"
                 y="229.387542"
                 id="use199" />
            </g>
          </g>
          <g
             id="text_8">
            <!-- 0 -->
            <g
               transform="translate(40.6375 233.186761)scale(0.1 -0.1)"
               id="g202">
              <use
                 xlink:href="#DejaVuSans-48"
                 id="use204" />
            </g>
          </g>
        </g>
        <g
           id="ytick_2">
          <g
             id="line2d_8">
            <g
               id="g208">
              <use
                 style="stroke:#000000;stroke-width:0.8;"
                 x="54"
                 xlink:href="#m36a12031fb"
                 y="195.761378"
                 id="use210" />
            </g>
          </g>
          <g
             id="text_9">
            <!-- 10 -->
            <g
               transform="translate(34.275 199.560596)scale(0.1 -0.1)"
               id="g213">
              <use
                 xlink:href="#DejaVuSans-49"
                 id="use215" />
              <use
                 x="63.623047"
                 xlink:href="#DejaVuSans-48"
                 id="use217" />
            </g>
          </g>
        </g>
        <g
           id="ytick_3">
          <g
             id="line2d_9">
            <g
               id="g221">
              <use
                 style="stroke:#000000;stroke-width:0.8;"
                 x="54"
                 xlink:href="#m36a12031fb"
                 y="162.135213"
                 id="use223" />
            </g>
          </g>
          <g
             id="text_10">
            <!-- 20 -->
            <g
               transform="translate(34.275 165.934432)scale(0.1 -0.1)"
               id="g226">
              <use
                 xlink:href="#DejaVuSans-50"
                 id="use228" />
              <use
                 x="63.623047"
                 xlink:href="#DejaVuSans-48"
                 id="use230" />
            </g>
          </g>
        </g>
        <g
           id="ytick_4">
          <g
             id="line2d_10">
            <g
               id="g234">
              <use
                 style="stroke:#000000;stroke-width:0.8;"
                 x="54"
                 xlink:href="#m36a12031fb"
                 y="128.509048"
                 id="use236" />
            </g>
          </g>
          <g
             id="text_11">
            <!-- 30 -->
            <g
               transform="translate(34.275 132.308267)scale(0.1 -0.1)"
               id="g239">
              <use
                 xlink:href="#DejaVuSans-51"
                 id="use241" />
              <use
                 x="63.623047"
                 xlink:href="#DejaVuSans-48"
                 id="use243" />
            </g>
          </g>
        </g>
        <g
           id="ytick_5">
          <g
             id="line2d_11">
            <g
               id="g247">
              <use
                 style="stroke:#000000;stroke-width:0.8;"
                 x="54"
                 xlink:href="#m36a12031fb"
                 y="94.882883"
                 id="use249" />
            </g>
          </g>
          <g
             id="text_12">
            <!-- 40 -->
            <g
               transform="translate(34.275 98.682102)scale(0.1 -0.1)"
               id="g252">
              <use
                 xlink:href="#DejaVuSans-52"
                 id="use254" />
              <use
                 x="63.623047"
                 xlink:href="#DejaVuSans-48"
                 id="use256" />
            </g>
          </g>
        </g>
        <g
           id="ytick_6">
          <g
             id="line2d_12">
            <g
               id="g260">
              <use
                 style="stroke:#000000;stroke-width:0.8;"
                 x="54"
                 xlink:href="#m36a12031fb"
                 y="61.256719"
                 id="use262" />
            </g>
          </g>
          <g
             id="text_13">
            <!-- 50 -->
            <g
               transform="translate(34.275 65.055937)scale(0.1 -0.1)"
               id="g265">
              <use
                 xlink:href="#DejaVuSans-53"
                 id="use267" />
              <use
                 x="63.623047"
                 xlink:href="#DejaVuSans-48"
                 id="use269" />
            </g>
          </g>
        </g>
        <g
           id="text_14">
          <!-- epsodic reward -->
          <defs
             id="defs272">
            <path
               d="M 48.78125 52.59375  L 48.78125 44.1875  Q 44.96875 46.296875 41.140625 47.34375  Q 37.3125 48.390625 33.40625 48.390625  Q 24.65625 48.390625 19.8125 42.84375  Q 14.984375 37.3125 14.984375 27.296875  Q 14.984375 17.28125 19.8125 11.734375  Q 24.65625 6.203125 33.40625 6.203125  Q 37.3125 6.203125 41.140625 7.25  Q 44.96875 8.296875 48.78125 10.40625  L 48.78125 2.09375  Q 45.015625 0.34375 40.984375 -0.53125  Q 36.96875 -1.421875 32.421875 -1.421875  Q 20.0625 -1.421875 12.78125 6.34375  Q 5.515625 14.109375 5.515625 27.296875  Q 5.515625 40.671875 12.859375 48.328125  Q 20.21875 56 33.015625 56  Q 37.15625 56 41.109375 55.140625  Q 45.0625 54.296875 48.78125 52.59375  z "
               id="DejaVuSans-99" />
            <path
               d="M 4.203125 54.6875  L 13.1875 54.6875  L 24.421875 12.015625  L 35.59375 54.6875  L 46.1875 54.6875  L 57.421875 12.015625  L 68.609375 54.6875  L 77.59375 54.6875  L 63.28125 0  L 52.6875 0  L 40.921875 44.828125  L 29.109375 0  L 18.5 0  z "
               id="DejaVuSans-119" />
          </defs>
          <g
             transform="translate(28.195312 181.608906)rotate(-90)scale(0.1 -0.1)"
             id="g276">
            <use
               xlink:href="#DejaVuSans-101"
               id="use278" />
            <use
               x="61.523438"
               xlink:href="#DejaVuSans-112"
               id="use280" />
            <use
               x="125"
               xlink:href="#DejaVuSans-115"
               id="use282" />
            <use
               x="177.099609"
               xlink:href="#DejaVuSans-111"
               id="use284" />
            <use
               x="238.28125"
               xlink:href="#DejaVuSans-100"
               id="use286" />
            <use
               x="301.757812"
               xlink:href="#DejaVuSans-105"
               id="use288" />
            <use
               x="329.541016"
               xlink:href="#DejaVuSans-99"
               id="use290" />
            <use
               x="384.521484"
               xlink:href="#DejaVuSans-32"
               id="use292" />
            <use
               x="416.308594"
               xlink:href="#DejaVuSans-114"
               id="use294" />
            <use
               x="457.390625"
               xlink:href="#DejaVuSans-101"
               id="use296" />
            <use
               x="518.914062"
               xlink:href="#DejaVuSans-119"
               id="use298" />
            <use
               x="600.701172"
               xlink:href="#DejaVuSans-97"
               id="use300" />
            <use
               x="661.980469"
               xlink:href="#DejaVuSans-114"
               id="use302" />
            <use
               x="703.078125"
               xlink:href="#DejaVuSans-100"
               id="use304" />
          </g>
        </g>
      </g>
      <g
         id="line2d_13">
        <path
           clip-path="url(#p67818ec045)"
           d="M 69.828129 229.38081  L 70.438076 227.050022  L 71.048023 225.686599  L 71.65797 224.719234  L 72.877865 223.355811  L 74.097759 222.388446  L 75.927601 221.317608  L 77.757442 220.506673  L 80.197231 219.661599  L 83.246967 218.837346  L 87.516597 217.943888  L 93.006121 217.061658  L 99.71554 216.226177  L 108.254801 215.396082  L 119.23385 214.562704  L 133.262634 213.731327  L 151.561049 212.886253  L 174.739042 212.052267  L 204.626453 211.213679  L 242.443177 210.385477  L 291.238951 209.550944  L 353.453562 208.720271  L 373.581818 208.490199  L 373.581818 208.490199  "
           style="fill:none;stroke:#0000ff;stroke-linecap:square;stroke-opacity:0.6;stroke-width:1.5;"
           id="path307" />
      </g>
      <g
         id="line2d_14">
        <path
           clip-path="url(#p67818ec045)"
           d="M 69.218182 229.387542  L 373.581818 61.256719  L 373.581818 61.256719  "
           style="fill:none;stroke:#ff0000;stroke-linecap:square;stroke-opacity:0.6;stroke-width:1.5;"
           id="path310" />
      </g>
      <g
         id="patch_3">
        <path
           d="M 54 252  L 54 34.56  "
           style="fill:none;stroke:#000000;stroke-linecap:square;stroke-linejoin:miter;stroke-width:0.8;"
           id="path313" />
      </g>
      <g
         id="patch_4">
        <path
           d="M 388.8 252  L 388.8 34.56  "
           style="fill:none;stroke:#000000;stroke-linecap:square;stroke-linejoin:miter;stroke-width:0.8;"
           id="path316" />
      </g>
      <g
         id="patch_5">
        <path
           d="M 54 252  L 388.8 252  "
           style="fill:none;stroke:#000000;stroke-linecap:square;stroke-linejoin:miter;stroke-width:0.8;"
           id="path319" />
      </g>
      <g
         id="patch_6">
        <path
           d="M 54 34.56  L 388.8 34.56  "
           style="fill:none;stroke:#000000;stroke-linecap:square;stroke-linejoin:miter;stroke-width:0.8;"
           id="path322" />
      </g>
      <g
         id="legend_1">
        <g
           id="patch_7">
          <path
             d="M 61 71.91625  L 141.159375 71.91625  Q 143.159375 71.91625 143.159375 69.91625  L 143.159375 41.56  Q 143.159375 39.56 141.159375 39.56  L 61 39.56  Q 59 39.56 59 41.56  L 59 69.91625  Q 59 71.91625 61 71.91625  z "
             style="fill:#ffffff;opacity:0.8;stroke:#cccccc;stroke-linejoin:miter;"
             id="path326" />
        </g>
        <g
           id="line2d_15">
          <path
             d="M 63 47.658437  L 83 47.658437  "
             style="fill:none;stroke:#0000ff;stroke-linecap:square;stroke-opacity:0.6;stroke-width:1.5;"
             id="path329" />
        </g>
        <g
           id="line2d_16" />
        <g
           id="text_15">
          <!-- method 1 -->
          <defs
             id="defs333">
            <path
               d="M 52 44.1875  Q 55.375 50.25 60.0625 53.125  Q 64.75 56 71.09375 56  Q 79.640625 56 84.28125 50.015625  Q 88.921875 44.046875 88.921875 33.015625  L 88.921875 0  L 79.890625 0  L 79.890625 32.71875  Q 79.890625 40.578125 77.09375 44.375  Q 74.3125 48.1875 68.609375 48.1875  Q 61.625 48.1875 57.5625 43.546875  Q 53.515625 38.921875 53.515625 30.90625  L 53.515625 0  L 44.484375 0  L 44.484375 32.71875  Q 44.484375 40.625 41.703125 44.40625  Q 38.921875 48.1875 33.109375 48.1875  Q 26.21875 48.1875 22.15625 43.53125  Q 18.109375 38.875 18.109375 30.90625  L 18.109375 0  L 9.078125 0  L 9.078125 54.6875  L 18.109375 54.6875  L 18.109375 46.1875  Q 21.1875 51.21875 25.484375 53.609375  Q 29.78125 56 35.6875 56  Q 41.65625 56 45.828125 52.96875  Q 50 49.953125 52 44.1875  z "
               id="DejaVuSans-109" />
            <path
               d="M 54.890625 33.015625  L 54.890625 0  L 45.90625 0  L 45.90625 32.71875  Q 45.90625 40.484375 42.875 44.328125  Q 39.84375 48.1875 33.796875 48.1875  Q 26.515625 48.1875 22.3125 43.546875  Q 18.109375 38.921875 18.109375 30.90625  L 18.109375 0  L 9.078125 0  L 9.078125 75.984375  L 18.109375 75.984375  L 18.109375 46.1875  Q 21.34375 51.125 25.703125 53.5625  Q 30.078125 56 35.796875 56  Q 45.21875 56 50.046875 50.171875  Q 54.890625 44.34375 54.890625 33.015625  z "
               id="DejaVuSans-104" />
          </defs>
          <g
             transform="translate(91 51.158437)scale(0.1 -0.1)"
             id="g337">
            <use
               xlink:href="#DejaVuSans-109"
               id="use339" />
            <use
               x="97.412109"
               xlink:href="#DejaVuSans-101"
               id="use341" />
            <use
               x="158.935547"
               xlink:href="#DejaVuSans-116"
               id="use343" />
            <use
               x="198.144531"
               xlink:href="#DejaVuSans-104"
               id="use345" />
            <use
               x="261.523438"
               xlink:href="#DejaVuSans-111"
               id="use347" />
            <use
               x="322.705078"
               xlink:href="#DejaVuSans-100"
               id="use349" />
            <use
               x="386.181641"
               xlink:href="#DejaVuSans-32"
               id="use351" />
            <use
               x="417.96875"
               xlink:href="#DejaVuSans-49"
               id="use353" />
          </g>
        </g>
        <g
           id="line2d_17">
          <path
             d="M 63 62.336562  L 83 62.336562  "
             style="fill:none;stroke:#ff0000;stroke-linecap:square;stroke-opacity:0.6;stroke-width:1.5;"
             id="path356" />
        </g>
        <g
           id="line2d_18" />
        <g
           id="text_16">
          <!-- method 2 -->
          <g
             transform="translate(91 65.836562)scale(0.1 -0.1)"
             id="g360">
            <use
               xlink:href="#DejaVuSans-109"
               id="use362" />
            <use
               x="97.412109"
               xlink:href="#DejaVuSans-101"
               id="use364" />
            <use
               x="158.935547"
               xlink:href="#DejaVuSans-116"
               id="use366" />
            <use
               x="198.144531"
               xlink:href="#DejaVuSans-104"
               id="use368" />
            <use
               x="261.523438"
               xlink:href="#DejaVuSans-111"
               id="use370" />
            <use
               x="322.705078"
               xlink:href="#DejaVuSans-100"
               id="use372" />
            <use
               x="386.181641"
               xlink:href="#DejaVuSans-32"
               id="use374" />
            <use
               x="417.96875"
               xlink:href="#DejaVuSans-50"
               id="use376" />
          </g>
        </g>
      </g>
    </g>
  </g>
  <defs
     id="defs378">
    <clipPath
       id="p67818ec045">
      <rect
         height="217.44"
         width="334.8"
         x="54"
         y="34.56"
         id="rect381" />
    </clipPath>
  </defs>
</svg>
